<?xml version="1.0" encoding="UTF-8"?>
<svg version="1.1" xmlns="http://www.w3.org/2000/svg" width="500" height="35">
<path d="M0 0 C2.31 0 4.62 0 7 0 C10.39247043 6.53467665 13.37933326 13.11891972 16 20 C16.38671875 19.2265625 16.7734375 18.453125 17.171875 17.65625 C21.5859375 8.828125 21.5859375 8.828125 26 0 C28.31 0 30.62 0 33 0 C33 10.56 33 21.12 33 32 C30.69 32 28.38 32 26 32 C25.505 25.565 25.505 25.565 25 19 C23.35 23.29 21.7 27.58 20 32 C17.69 32 15.38 32 13 32 C11.35 28.04 9.7 24.08 8 20 C7.67 23.96 7.34 27.92 7 32 C4.69 32 2.38 32 0 32 C-0.8834133 24.98001933 -1.10901993 18.00401975 -1.125 10.9375 C-1.12951172 10.0921167 -1.13402344 9.2467334 -1.13867188 8.37573242 C-1.12377808 2.24755616 -1.12377808 2.24755616 0 0 Z " fill="#767FC6" transform="translate(155,1)"/>
<path d="M0 0 C2.31 0 4.62 0 7 0 C9.97 6.6 12.94 13.2 16 20 C16.721875 18.55625 17.44375 17.1125 18.1875 15.625 C20.79166667 10.41666667 23.39583333 5.20833333 26 0 C28.31 0 30.62 0 33 0 C33 10.56 33 21.12 33 32 C30.69 32 28.38 32 26 32 C25.505 25.565 25.505 25.565 25 19 C24.195625 20.959375 23.39125 22.91875 22.5625 24.9375 C20.125 30.875 20.125 30.875 19 32 C17.02 32 15.04 32 13 32 C11.02 27.38 9.04 22.76 7 18 C6.67 22.62 6.34 27.24 6 32 C3.69 32 1.38 32 -1 32 C-1.02465504 27.60343827 -1.04283842 23.2069128 -1.05493164 18.81030273 C-1.05997121 17.31355082 -1.06680287 15.81680384 -1.07543945 14.32006836 C-1.08752159 12.17300193 -1.09323191 10.02600038 -1.09765625 7.87890625 C-1.10289307 6.5854126 -1.10812988 5.29191895 -1.11352539 3.95922852 C-1 1 -1 1 0 0 Z " fill="#5563D3" transform="translate(209,1)"/>
<path d="M0 0 C2.625 -0.5 2.625 -0.5 6 0 C8.45033068 2.35608719 10.17344559 5.14776504 12 8 C13.12486767 9.66675598 14.24986392 11.3334252 15.375 13 C16.25235729 14.33178338 17.12824374 15.6645436 18 17 C18.06058594 15.85660156 18.12117188 14.71320312 18.18359375 13.53515625 C18.26798428 12.04425695 18.35263302 10.55337225 18.4375 9.0625 C18.47681641 8.30775391 18.51613281 7.55300781 18.55664062 6.77539062 C18.88671875 1.11328125 18.88671875 1.11328125 20 0 C21.98 0 23.96 0 26 0 C26 10.56 26 21.12 26 32 C19 32 19 32 16.671875 29.76953125 C16.03765625 28.79371094 15.4034375 27.81789063 14.75 26.8125 C14.10546875 25.84957031 13.4609375 24.88664062 12.796875 23.89453125 C11.1728399 21.27842253 9.58423885 18.64039809 8 16 C7.67 21.28 7.34 26.56 7 32 C4.36 32 1.72 32 -1 32 C-1.02914348 27.79168132 -1.04684712 23.58338878 -1.0625 19.375 C-1.07087891 18.18519531 -1.07925781 16.99539062 -1.08789062 15.76953125 C-1.09111328 14.61582031 -1.09433594 13.46210938 -1.09765625 12.2734375 C-1.10289307 11.21560059 -1.10812988 10.15776367 -1.11352539 9.06787109 C-0.99875578 5.96637654 -0.57696282 3.04652343 0 0 Z " fill="#7886E3" transform="translate(307,1)"/>
<path d="M0 0 C3.51520834 2.3707219 5.79390381 5.02530762 7.6875 8.8125 C8.87684737 20.96083381 8.87684737 20.96083381 5.6875 25.9375 C2.63651933 29.38270851 -0.80462011 31.04502941 -5.3125 31.8125 C-11.33622643 32.04732323 -15.65544148 30.80426445 -20.3125 26.8125 C-24.41695126 21.19949148 -24.07971105 15.51505808 -23.3125 8.8125 C-21.82704894 4.76750251 -18.95789652 2.04677529 -15.3125 -0.1875 C-10.1060264 -1.9229912 -5.16315911 -1.85094383 0 0 Z M-14.3125 8.8125 C-16.81281654 12.56297482 -16.84853554 14.37106266 -16.3125 18.8125 C-13.72033917 22.50436542 -12.27100936 23.64133761 -7.8125 24.4375 C-3.35399064 23.64133761 -1.90466083 22.50436542 0.6875 18.8125 C1.35646642 14.65004227 1.13944465 12.61209438 -0.9375 8.9375 C-5.59523423 4.77005359 -9.50131291 5.0704656 -14.3125 8.8125 Z " fill="#4352BD" transform="translate(128.3125,2.1875)"/>
<path d="M0 0 C3.21778169 2.24496397 4.82575564 4.43793348 6.6875 7.875 C6.6875 8.865 6.6875 9.855 6.6875 10.875 C4.0475 10.875 1.4075 10.875 -1.3125 10.875 C-1.6425 9.885 -1.9725 8.895 -2.3125 7.875 C-7.35469012 6.76995111 -7.35469012 6.76995111 -12.1875 8.1875 C-14.4020931 9.70225163 -14.4020931 9.70225163 -15.3125 11.875 C-15.66769903 15.71114957 -15.85974594 18.02129634 -13.75 21.3125 C-10.40743717 23.45516848 -8.20754791 23.37073337 -4.3125 22.875 C-3.838125 22.38 -3.36375 21.885 -2.875 21.375 C-0.84897924 19.43002007 0.11968429 19.67304904 2.875 19.6875 C4.7621875 19.7803125 4.7621875 19.7803125 6.6875 19.875 C6.39109143 23.33309994 5.72403935 24.83010879 3.5 27.5625 C-0.82234879 31.11643123 -4.29273711 32.12045388 -9.8125 31.75 C-14.1335525 31.12439307 -16.95517947 29.75270331 -20.3125 26.875 C-24.40659352 21.25296728 -24.18832911 15.58418152 -23.3125 8.875 C-21.64481248 4.6844006 -19.20139552 2.5012673 -15.5625 -0.0625 C-10.09924318 -1.84856473 -5.44438922 -1.84903785 0 0 Z " fill="#3E50D1" transform="translate(80.3125,2.125)"/>
<path d="M0 0 C1.99954746 -0.04254356 4.00041636 -0.04080783 6 0 C7.64648093 1.64648093 7.20577389 3.60750482 7.28125 5.875 C7.31863281 6.85984375 7.35601562 7.8446875 7.39453125 8.859375 C7.46484375 10.953125 7.53515625 13.046875 7.60546875 15.140625 C7.66154297 16.61789063 7.66154297 16.61789063 7.71875 18.125 C7.74904297 19.03507812 7.77933594 19.94515625 7.81054688 20.8828125 C7.77049759 22.98425432 7.77049759 22.98425432 9 24 C11.64 24 14.28 24 17 24 C17.33 16.08 17.66 8.16 18 0 C20.31 0 22.62 0 25 0 C25.08729047 4.06236402 25.14048992 8.12448589 25.1875 12.1875 C25.21263672 13.33798828 25.23777344 14.48847656 25.26367188 15.67382812 C25.27333984 16.78564453 25.28300781 17.89746094 25.29296875 19.04296875 C25.3086792 20.06414795 25.32438965 21.08532715 25.34057617 22.13745117 C24.94174438 25.48963953 24.01098652 27.3080476 22 30 C17.18760129 32.88743923 13.62227951 33.43622893 8.0859375 32.5859375 C5.05245605 31.73383597 3.17171685 30.239583 1 28 C-0.35700647 25.28598706 -0.1123861 23.15153684 -0.09765625 20.1171875 C-0.09443359 18.95058594 -0.09121094 17.78398437 -0.08789062 16.58203125 C-0.07951172 15.35871094 -0.07113281 14.13539062 -0.0625 12.875 C-0.05798828 11.64394531 -0.05347656 10.41289062 -0.04882812 9.14453125 C-0.0370133 6.09630608 -0.02054028 3.04817686 0 0 Z " fill="#5462CA" transform="translate(262,1)"/>
<path d="M0 0 C2.64 0 5.28 0 8 0 C9.98 3.96 11.96 7.92 14 12 C15.98 8.04 17.96 4.08 20 0 C22.31 0 24.62 0 27 0 C26.49592889 5.14310056 24.58798573 8.82536409 22 13.1875 C18.45728031 19.42519505 16.75729066 24.70355061 17 32 C14.69 32 12.38 32 10 32 C10.03222656 31.33097656 10.06445312 30.66195313 10.09765625 29.97265625 C9.97798261 20.06633839 5.76109047 12.99285229 0.81030273 4.71069336 C0 3 0 3 0 0 Z " fill="#5965D0" transform="translate(417,1)"/>
<path d="M0 0 C7.59 0 15.18 0 23 0 C23 2.31 23 4.62 23 7 C20.36 7 17.72 7 15 7 C15 15.25 15 23.5 15 32 C12.69 32 10.38 32 8 32 C8 23.75 8 15.5 8 7 C5.36 7 2.72 7 0 7 C0 4.69 0 2.38 0 0 Z " fill="#6770BE" transform="translate(378,1)"/>
<path d="M0 0 C3.51520834 2.3707219 5.79390381 5.02530762 7.6875 8.8125 C7.75842842 11.0197923 7.77165025 13.22917452 7.75 15.4375 C7.74097656 16.62601563 7.73195312 17.81453125 7.72265625 19.0390625 C7.71105469 19.95429688 7.69945312 20.86953125 7.6875 21.8125 C7.3575 21.8125 7.0275 21.8125 6.6875 21.8125 C6.3575 17.1925 6.0275 12.5725 5.6875 7.8125 C5.0275 7.8125 4.3675 7.8125 3.6875 7.8125 C3.3575 11.4425 3.0275 15.0725 2.6875 18.8125 C2.0275 18.8125 1.3675 18.8125 0.6875 18.8125 C0.60113281 18.19761719 0.51476562 17.58273438 0.42578125 16.94921875 C-0.42046682 11.74830961 -0.42046682 11.74830961 -3.5625 7.6875 C-6.9919922 6.59629794 -8.89471469 6.69800479 -12.3125 7.8125 C-15.74031751 10.8857157 -15.8862789 14.37980061 -16.3125 18.8125 C-16.6425 18.8125 -16.9725 18.8125 -17.3125 18.8125 C-17.3125 15.1825 -17.3125 11.5525 -17.3125 7.8125 C-16.3225 7.8125 -15.3325 7.8125 -14.3125 7.8125 C-14.3125 6.4925 -14.3125 5.1725 -14.3125 3.8125 C-17.91547345 4.88505812 -17.91547345 4.88505812 -20.4375 7.5 C-21.53004941 10.38745202 -21.73682719 12.98551694 -21.9375 16.0625 C-22.01226562 17.14015625 -22.08703125 18.2178125 -22.1640625 19.328125 C-22.21304688 20.14796875 -22.26203125 20.9678125 -22.3125 21.8125 C-22.6425 21.8125 -22.9725 21.8125 -23.3125 21.8125 C-24.00103935 8.92151337 -24.00103935 8.92151337 -21.5625 5.1875 C-15.40085442 -1.31645922 -8.52754811 -3.05704555 0 0 Z " fill="#6C75C3" transform="translate(128.3125,2.1875)"/>
<path d="M0 0 C0 10.56 0 21.12 0 32 C-1.98 32 -3.96 32 -6 32 C-6.33 26.06 -6.66 20.12 -7 14 C-7.66 14 -8.32 14 -9 14 C-9 14.66 -9 15.32 -9 16 C-9.66 16 -10.32 16 -11 16 C-10.18739054 0 -10.18739054 0 0 0 Z " fill="#4F5BCA" transform="translate(242,1)"/>
<path d="M0 0 C1.98 0 3.96 0 6 0 C6 10.56 6 21.12 6 32 C3.69 32 1.38 32 -1 32 C-1.02465504 27.60343827 -1.04283842 23.2069128 -1.05493164 18.81030273 C-1.05997121 17.31355082 -1.06680287 15.81680384 -1.07543945 14.32006836 C-1.08752159 12.17300193 -1.09323191 10.02600038 -1.09765625 7.87890625 C-1.10289307 6.5854126 -1.10812988 5.29191895 -1.11352539 3.95922852 C-1 1 -1 1 0 0 Z " fill="#3C4ED9" transform="translate(354,1)"/>
<path d="M0 0 C0 9.9 0 19.8 0 30 C-1.98 30 -3.96 30 -6 30 C-6.33 23.73 -6.66 17.46 -7 11 C-7.66 12.32 -8.32 13.64 -9 15 C-9.99 15 -10.98 15 -12 15 C-11.67 13.02 -11.34 11.04 -11 9 C-10.34 9 -9.68 9 -9 9 C-9 8.01 -9 7.02 -9 6 C-8.34 6 -7.68 6 -7 6 C-6.67 4.35 -6.34 2.7 -6 1 C-1.125 0 -1.125 0 0 0 Z " fill="#3B4ED4" transform="translate(188,3)"/>
<path d="M0 0 C1.27351308 2.54702616 0.80191925 3.4282945 0.0625 6.125 C-0.13214844 6.84945313 -0.32679688 7.57390625 -0.52734375 8.3203125 C-0.68332031 8.87460938 -0.83929688 9.42890625 -1 10 C-0.34 10 0.32 10 1 10 C1 9.34 1 8.68 1 8 C1.99 7.67 2.98 7.34 4 7 C4 13.27 4 19.54 4 26 C3.67 26 3.34 26 3 26 C2.67 21.71 2.34 17.42 2 13 C1.195625 14.959375 0.39125 16.91875 -0.4375 18.9375 C-2.875 24.875 -2.875 24.875 -4 26 C-5.99958364 26.04080783 -8.00045254 26.04254356 -10 26 C-13 19.5 -13 19.5 -13 15 C-12.34 15 -11.68 15 -11 15 C-11 13.35 -11 11.7 -11 10 C-10.34 10 -9.68 10 -9 10 C-8.34 11.32 -7.68 12.64 -7 14 C-6.66226563 13.32453125 -6.32453125 12.6490625 -5.9765625 11.953125 C-3.984375 7.96875 -1.9921875 3.984375 0 0 Z " fill="#3D4ECF" transform="translate(232,7)"/>
<path d="M0 0 C1.98 0 3.96 0 6 0 C6 10.56 6 21.12 6 32 C3.69 32 1.38 32 -1 32 C-2.125 26.375 -2.125 26.375 -1 23 C-0.85164052 21.22833025 -0.75229982 19.45232388 -0.68359375 17.67578125 C-0.64169922 16.64775391 -0.59980469 15.61972656 -0.55664062 14.56054688 C-0.51732422 13.48869141 -0.47800781 12.41683594 -0.4375 11.3125 C-0.39431641 10.22904297 -0.35113281 9.14558594 -0.30664062 8.02929688 C-0.20053162 5.35299209 -0.09847639 2.67659474 0 0 Z " fill="#4D59B9" transform="translate(327,1)"/>
<path d="M0 0 C2.63884173 1.01026786 3.78982902 1.62567586 5.1953125 4.12890625 C5.50210937 4.93199219 5.80890625 5.73507813 6.125 6.5625 C7.25321898 9.99197579 7.25321898 9.99197579 10 12 C10.268125 11.030625 10.53625 10.06125 10.8125 9.0625 C11.4003125 7.5465625 11.4003125 7.5465625 12 6 C12.99 5.67 13.98 5.34 15 5 C15.14050644 8.51266091 15.20411661 11.40125796 14.0625 14.75 C12.5359227 19.41953058 12.33007781 24.11832298 12 29 C10.02 29 8.04 29 6 29 C5.91666643 24.1666528 6.04738513 19.76307437 7 15 C6.34 15 5.68 15 5 15 C5 14.01 5 13.02 5 12 C4.01 11.67 3.02 11.34 2 11 C2.33 9.68 2.66 8.36 3 7 C2.01 6.67 1.02 6.34 0 6 C0 4.02 0 2.04 0 0 Z M16 3 C16 6 16 6 16 6 Z " fill="#3E4DD4" transform="translate(422,4)"/>
<path d="M0 0 C1.98 0 3.96 0 6 0 C6.33 1.32 6.66 2.64 7 4 C7.66 4 8.32 4 9 4 C9.33 4.99 9.66 5.98 10 7 C9.34 7 8.68 7 8 7 C8 8.32 8 9.64 8 11 C7.01 11 6.02 11 5 11 C4.67 16.94 4.34 22.88 4 29 C2.68 29 1.36 29 0 29 C0 19.43 0 9.86 0 0 Z " fill="#3D4EDB" transform="translate(156,3)"/>
<path d="M0 0 C2.56040899 1.86870809 2.8906823 2.91856194 4 6 C4 6.99 4 7.98 4 9 C1.36 9 -1.28 9 -4 9 C-4.33 8.01 -4.66 7.02 -5 6 C-8.63537366 5.2158998 -11.22623144 4.759272 -14.8125 5.875 C-18.06976832 9.03920351 -18.38386086 12.61345714 -19 17 C-19.33 17 -19.66 17 -20 17 C-20 13.7 -20 10.4 -20 7 C-19.34 7 -18.68 7 -18 7 C-18.34786708 5.02463255 -18.34786708 5.02463255 -19 3 C-19.66 2.67 -20.32 2.34 -21 2 C-14.35607637 -1.95471645 -7.43836461 -1.69516902 0 0 Z " fill="#616DCC" transform="translate(83,4)"/>
<path d="M0 0 C1.65 0 3.3 0 5 0 C5.33 1.98 5.66 3.96 6 6 C5.34 6 4.68 6 4 6 C4.33 6.99 4.66 7.98 5 9 C5.08106686 10.55421729 5.10756898 12.11167027 5.09765625 13.66796875 C5.09282227 15.00698242 5.09282227 15.00698242 5.08789062 16.37304688 C5.07951172 17.30181641 5.07113281 18.23058594 5.0625 19.1875 C5.05798828 20.12787109 5.05347656 21.06824219 5.04882812 22.03710938 C5.03704626 24.35813712 5.02059558 26.67903644 5 29 C3.35 29 1.7 29 0 29 C0 19.43 0 9.86 0 0 Z " fill="#3E4ECF" transform="translate(308,4)"/>
<path d="M0 0 C6.27 0 12.54 0 19 0 C19 0.66 19 1.32 19 2 C16.36 2.33 13.72 2.66 11 3 C11 11.25 11 19.5 11 28 C10.01 28 9.02 28 8 28 C7.67 19.75 7.34 11.5 7 3 C4.69 2.67 2.38 2.34 0 2 C0 1.34 0 0.68 0 0 Z " fill="#3C4EDA" transform="translate(380,4)"/>
<path d="M0 0 C2.625 -0.5 2.625 -0.5 6 0 C8.45118266 2.3569064 10.16335618 5.15343694 12 8 C12.57621094 8.80179688 13.15242188 9.60359375 13.74609375 10.4296875 C16.97601914 14.97992882 16.97601914 14.97992882 18 17 C17.67 17.99 17.34 18.98 17 20 C11.52211615 15.28293335 9.25684336 9.77053009 7 3 C5.02 3 3.04 3 1 3 C1 12.57 1 22.14 1 32 C0.34 31.67 -0.32 31.34 -1 31 C-1.02915731 26.95834861 -1.04685173 22.9167245 -1.0625 18.875 C-1.07087891 17.73289062 -1.07925781 16.59078125 -1.08789062 15.4140625 C-1.09111328 14.30546875 -1.09433594 13.196875 -1.09765625 12.0546875 C-1.10289307 11.03874512 -1.10812988 10.02280273 -1.11352539 8.97607422 C-0.99652309 5.90885274 -0.56776417 3.01366866 0 0 Z " fill="#868BC0" transform="translate(307,1)"/>
<path d="M0 0 C1.98 0 3.96 0 6 0 C6 10.56 6 21.12 6 32 C3.69 32 1.38 32 -1 32 C-1.02465504 27.60343827 -1.04283842 23.2069128 -1.05493164 18.81030273 C-1.05997121 17.31355082 -1.06680287 15.81680384 -1.07543945 14.32006836 C-1.08752159 12.17300193 -1.09323191 10.02600038 -1.09765625 7.87890625 C-1.10289307 6.5854126 -1.10812988 5.29191895 -1.11352539 3.95922852 C-1 1 -1 1 0 0 Z M2 2 C0.69338505 3.08108449 0.69338505 3.08108449 0.88647461 5.68383789 C0.89171143 6.85164795 0.89694824 8.01945801 0.90234375 9.22265625 C0.90556641 10.48271484 0.90878906 11.74277344 0.91210938 13.04101562 C0.92046597 14.38151109 0.92893093 15.72200588 0.9375 17.0625 C0.9425134 18.40689942 0.94707658 19.7513006 0.95117188 21.09570312 C0.96300512 24.39717941 0.97949029 27.69856803 1 31 C2.32 31 3.64 31 5 31 C5 21.43 5 11.86 5 2 C4.01 2 3.02 2 2 2 Z " fill="#757DCC" transform="translate(354,1)"/>
<path d="M0 0 C1.134375 0.020625 2.26875 0.04125 3.4375 0.0625 C3.1075 1.0525 2.7775 2.0425 2.4375 3.0625 C0.7875 3.0625 -0.8625 3.0625 -2.5625 3.0625 C-2.8925 4.7125 -3.2225 6.3625 -3.5625 8.0625 C-4.2225 8.0625 -4.8825 8.0625 -5.5625 8.0625 C-5.5625 9.0525 -5.5625 10.0425 -5.5625 11.0625 C-6.2225 11.0625 -6.8825 11.0625 -7.5625 11.0625 C-7.8925 13.0425 -8.2225 15.0225 -8.5625 17.0625 C-7.5725 17.0625 -6.5825 17.0625 -5.5625 17.0625 C-5.2325 15.4125 -4.9025 13.7625 -4.5625 12.0625 C-3.9025 12.3925 -3.2425 12.7225 -2.5625 13.0625 C-2.5625 19.3325 -2.5625 25.6025 -2.5625 32.0625 C-2.8925 32.0625 -3.2225 32.0625 -3.5625 32.0625 C-3.8925 27.7725 -4.2225 23.4825 -4.5625 19.0625 C-5.5525 21.5375 -5.5525 21.5375 -6.5625 24.0625 C-6.8925 24.0625 -7.2225 24.0625 -7.5625 24.0625 C-7.5625 22.0825 -7.5625 20.1025 -7.5625 18.0625 C-8.5525 18.0625 -9.5425 18.0625 -10.5625 18.0625 C-11.2225 19.3825 -11.8825 20.7025 -12.5625 22.0625 C-11.88373256 17.27341862 -10.02156236 13.1869525 -8.0625 8.8125 C-7.58103516 7.71421875 -7.58103516 7.71421875 -7.08984375 6.59375 C-4.2041431 0.0737569 -4.2041431 0.0737569 0 0 Z " fill="#6D74B2" transform="translate(184.5625,0.9375)"/>
<path d="M0 0 C0.66 0 1.32 0 2 0 C4.10066847 4.20133693 3.54135038 9.43718966 3 14 C1.6436659 16.80169398 0.42182535 17.91610376 -2 20 C-2.99 20.33 -3.98 20.66 -5 21 C-5 20.34 -5 19.68 -5 19 C-5.66 18.67 -6.32 18.34 -7 18 C-6.67 17.34 -6.34 16.68 -6 16 C-6.66 15.67 -7.32 15.34 -8 15 C-6.1875 13 -6.1875 13 -4 11 C-3.01 11 -2.02 11 -1 11 C-1.01160156 10.37351562 -1.02320313 9.74703125 -1.03515625 9.1015625 C-1.04417969 8.28429688 -1.05320313 7.46703125 -1.0625 6.625 C-1.07410156 5.81289062 -1.08570313 5.00078125 -1.09765625 4.1640625 C-1 2 -1 2 0 0 Z " fill="#4553C8" transform="translate(132,10)"/>
<path d="M0 0 C0.33 0 0.66 0 1 0 C1.33 3.3 1.66 6.6 2 10 C2.33 10 2.66 10 3 10 C3.226875 10.94875 3.45375 11.8975 3.6875 12.875 C4.68210149 16.05765602 4.68210149 16.05765602 7 17.3125 C15.73410425 19.45524868 15.73410425 19.45524868 24 17 C23.67 15.02 23.34 13.04 23 11 C25.31 11 27.62 11 30 11 C28.68573326 14.94280022 27.25269486 17.37977359 24 20 C18.94932481 22.46660882 14.3528434 22.32382148 9 21 C4.5240221 18.67912257 2.2035014 16.50280722 0 12 C-0.29296875 8.88671875 -0.29296875 8.88671875 -0.1875 5.6875 C-0.16042969 4.61886719 -0.13335937 3.55023438 -0.10546875 2.44921875 C-0.07066406 1.64097656 -0.03585938 0.83273437 0 0 Z " fill="#737CC5" transform="translate(57,12)"/>
<path d="M0 0 C1.32 0.33 2.64 0.66 4 1 C3.49287967 4.71888239 2.88391785 7.73454239 1 11 C1.99 11 2.98 11 4 11 C4 16.61 4 22.22 4 28 C2.68 27.67 1.36 27.34 0 27 C0 18.09 0 9.18 0 0 Z " fill="#3D4DD8" transform="translate(210,4)"/>
<path d="M0 0 C2.64 0 5.28 0 8 0 C9.5625 2.8125 9.5625 2.8125 11 6 C10.67 6.99 10.34 7.98 10 9 C9.54625 8.195625 9.0925 7.39125 8.625 6.5625 C7.25274335 3.91143428 7.25274335 3.91143428 5 3 C5.34227572 5.97065509 5.34227572 5.97065509 6 9 C6.66 9.33 7.32 9.66 8 10 C8 11.32 8 12.64 8 14 C8.66 14.33 9.32 14.66 10 15 C10 15.99 10 16.98 10 18 C10.66 18 11.32 18 12 18 C11.67 22.62 11.34 27.24 11 32 C10.67 32 10.34 32 10 32 C10.03222656 31.33097656 10.06445312 30.66195313 10.09765625 29.97265625 C9.97798261 20.06633839 5.76109047 12.99285229 0.81030273 4.71069336 C0 3 0 3 0 0 Z " fill="#5C67C2" transform="translate(417,1)"/>
<path d="M0 0 C0.66 0 1.32 0 2 0 C2 9.24 2 18.48 2 28 C0.35 28.33 -1.3 28.66 -3 29 C-4.27984717 24.34601027 -3.63505744 21.91930069 -1.76953125 17.56640625 C-0.08843638 11.95991217 -0.21997544 5.82555641 0 0 Z " fill="#3C4FDA" transform="translate(329,4)"/>
<path d="M0 0 C3.125 0.375 3.125 0.375 6 1 C6 1.66 6 2.32 6 3 C8.97 3.33 11.94 3.66 15 4 C15 4.33 15 4.66 15 5 C14.31292969 5.09796875 13.62585938 5.1959375 12.91796875 5.296875 C12.01691406 5.44640625 11.11585937 5.5959375 10.1875 5.75 C9.29417969 5.88921875 8.40085937 6.0284375 7.48046875 6.171875 C4.42670446 7.19139945 3.56815853 8.22556568 2 11 C1.27518916 14.65274469 1.27518916 14.65274469 1 18 C0.67 18 0.34 18 0 18 C0 14.37 0 10.74 0 7 C0.99 7 1.98 7 3 7 C3 5.68 3 4.36 3 3 C-0.60297345 4.07255812 -0.60297345 4.07255812 -3.125 6.6875 C-4.21754941 9.57495202 -4.42432719 12.17301694 -4.625 15.25 C-4.69976562 16.32765625 -4.77453125 17.4053125 -4.8515625 18.515625 C-4.90054688 19.33546875 -4.94953125 20.1553125 -5 21 C-5.33 21 -5.66 21 -6 21 C-6.68894389 8.10143931 -6.68894389 8.10143931 -4.125 4.3125 C-2.77903748 2.84777608 -1.40659718 1.40659718 0 0 Z " fill="#606CBC" transform="translate(111,3)"/>
<path d="M0 0 C1.27351308 2.54702616 0.80191925 3.4282945 0.0625 6.125 C-0.13214844 6.84945313 -0.32679688 7.57390625 -0.52734375 8.3203125 C-0.76130859 9.15175781 -0.76130859 9.15175781 -1 10 C-0.34 10 0.32 10 1 10 C1 9.34 1 8.68 1 8 C1.99 7.67 2.98 7.34 4 7 C4 13.27 4 19.54 4 26 C3.67 26 3.34 26 3 26 C2.67 21.71 2.34 17.42 2 13 C1.21625 14.959375 0.4325 16.91875 -0.375 18.9375 C-2.75 24.875 -2.75 24.875 -5 26 C-5 24.02 -5 22.04 -5 20 C-4.34 20 -3.68 20 -3 20 C-3 19.01 -3 18.02 -3 17 C-2.34 17 -1.68 17 -1 17 C-1 15.02 -1 13.04 -1 11 C-1.99 11 -2.98 11 -4 11 C-3.39301257 6.87248551 -1.96189209 3.6678852 0 0 Z " fill="#7E89D6" transform="translate(232,7)"/>
<path d="M0 0 C0 3 0 3 -2.125 5.5625 C-6.45228436 9.23128456 -9.90748281 10.25033672 -15.5 9.875 C-19.91757582 9.26954545 -22.53720858 7.75247523 -26 5 C-25.67 4.34 -25.34 3.68 -25 3 C-24.34 3.66 -23.68 4.32 -23 5 C-19.15899602 6.47730922 -15.04749486 6.06745825 -11 6 C-12.98 5.34 -14.96 4.68 -17 4 C-17 3.67 -17 3.34 -17 3 C-12.545 2.505 -12.545 2.505 -8 2 C-7.34 3.32 -6.68 4.64 -6 6 C-5.195625 5.195625 -4.39125 4.39125 -3.5625 3.5625 C-2.375 2.375 -1.1875 1.1875 0 0 Z " fill="#727BCA" transform="translate(134,24)"/>
<path d="M0 0 C0.7734375 -0.00257812 1.546875 -0.00515625 2.34375 -0.0078125 C4.5 0.125 4.5 0.125 7.5 1.125 C8.6875 4.6875 8.6875 4.6875 9.5 8.125 C8.18 8.125 6.86 8.125 5.5 8.125 C5.5 7.465 5.5 6.805 5.5 6.125 C2.53 5.795 -0.44 5.465 -3.5 5.125 C-3.5 4.465 -3.5 3.805 -3.5 3.125 C-4.82 2.465 -6.14 1.805 -7.5 1.125 C-4.68772378 0.18757459 -2.91253156 -0.00970844 0 0 Z " fill="#3D4ED9" transform="translate(120.5,0.875)"/>
<path d="M0 0 C1.134375 0.020625 2.26875 0.04125 3.4375 0.0625 C3.4375 0.3925 3.4375 0.7225 3.4375 1.0625 C1.4575 1.0625 -0.5225 1.0625 -2.5625 1.0625 C-2.2325 10.6325 -1.9025 20.2025 -1.5625 30.0625 C-0.2425 30.7225 1.0775 31.3825 2.4375 32.0625 C0.1275 32.0625 -2.1825 32.0625 -4.5625 32.0625 C-4.58715504 27.66593827 -4.60533842 23.2694128 -4.61743164 18.87280273 C-4.62247121 17.37605082 -4.62930287 15.87930384 -4.63793945 14.38256836 C-4.65002159 12.23550193 -4.65573191 10.08850038 -4.66015625 7.94140625 C-4.66539307 6.6479126 -4.67062988 5.35441895 -4.67602539 4.02172852 C-4.51089962 -0.28254994 -4.41826494 0.07751342 0 0 Z " fill="#747EC2" transform="translate(212.5625,0.9375)"/>
<path d="M0 0 C0 9.57 0 19.14 0 29 C-0.33 29 -0.66 29 -1 29 C-1 20.75 -1 12.5 -1 4 C-2.65 4 -4.3 4 -6 4 C-5.938125 5.175625 -5.938125 5.175625 -5.875 6.375 C-6 9 -6 9 -8 11 C-8.6425235 13.06874034 -8.6425235 13.06874034 -9 15 C-9.99 15 -10.98 15 -12 15 C-11.67 13.02 -11.34 11.04 -11 9 C-10.34 9 -9.68 9 -9 9 C-9 8.01 -9 7.02 -9 6 C-8.34 6 -7.68 6 -7 6 C-6.67 4.35 -6.34 2.7 -6 1 C-1.125 0 -1.125 0 0 0 Z " fill="#4451CF" transform="translate(188,3)"/>
<path d="M0 0 C2.31 0 4.62 0 7 0 C7 8.25 7 16.5 7 25 C6.67 25 6.34 25 6 25 C5.67 17.74 5.34 10.48 5 3 C4.01 3 3.02 3 2 3 C1.67 9.27 1.34 15.54 1 22 C0.67 22 0.34 22 0 22 C0 14.74 0 7.48 0 0 Z " fill="#7E87D0" transform="translate(280,1)"/>
<path d="M0 0 C0.99 0 1.98 0 3 0 C3 6.6 3 13.2 3 20 C2.34 20 1.68 20 1 20 C1 21.32 1 22.64 1 24 C0.34 24 -0.32 24 -1 24 C-0.67 16.08 -0.34 8.16 0 0 Z " fill="#3B4FDA" transform="translate(282,4)"/>
<path d="M0 0 C0.66 0.33 1.32 0.66 2 1 C3.54023996 1.06950541 5.08334988 1.08452357 6.625 1.0625 C7.44226563 1.05347656 8.25953125 1.04445313 9.1015625 1.03515625 C9.72804688 1.02355469 10.35453125 1.01195313 11 1 C11 1.66 11 2.32 11 3 C8.69 3 6.38 3 4 3 C4 3.99 4 4.98 4 6 C5.65 6.33 7.3 6.66 9 7 C9 7.66 9 8.32 9 9 C3.13551546 8.7444669 -0.65757571 8.34242429 -5 4 C-4.67 3.34 -4.34 2.68 -4 2 C-3.01 2.33 -2.02 2.66 -1 3 C-0.67 2.01 -0.34 1.02 0 0 Z " fill="#6B76CE" transform="translate(268,25)"/>
<path d="M0 0 C0.639375 0.33 1.27875 0.66 1.9375 1 C1.9375 1.33 1.9375 1.66 1.9375 2 C1.06867188 1.97679687 0.19984375 1.95359375 -0.6953125 1.9296875 C-1.84773438 1.91164062 -3.00015625 1.89359375 -4.1875 1.875 C-5.32445313 1.85179687 -6.46140625 1.82859375 -7.6328125 1.8046875 C-11.16369276 2.00576269 -13.82575127 2.5875135 -17.0625 4 C-17.78409424 5.64363134 -18.45601421 7.31050386 -19.0625 9 C-21.1875 9.8125 -21.1875 9.8125 -23.0625 10 C-20.76739476 5.2261811 -18.86561741 2.06102442 -14.05859375 -0.34765625 C-9.29206334 -1.90540689 -4.70713741 -1.53702446 0 0 Z " fill="#54598B" transform="translate(80.0625,2)"/>
<path d="M0 0 C0 1.32 0 2.64 0 4 C-0.99 4 -1.98 4 -3 4 C-3 8.62 -3 13.24 -3 18 C-3.99 18 -4.98 18 -6 18 C-7.63012838 16.36987162 -7.20976456 14.55562555 -7.25 12.3125 C-7.21149151 7.8326794 -6.53480444 4.80220666 -4 1 C-2 0 -2 0 0 0 Z " fill="#3C4EDB" transform="translate(114,6)"/>
<path d="M0 0 C0.66 0.33 1.32 0.66 2 1 C1.67 2.32 1.34 3.64 1 5 C0.34 5 -0.32 5 -1 5 C-1 8.3 -1 11.6 -1 15 C-0.34 15.33 0.32 15.66 1 16 C0.34 16.66 -0.32 17.32 -1 18 C-3.29633824 14.55549263 -3.54016485 12.06187717 -4 8 C-4.33 10.97 -4.66 13.94 -5 17 C-5.33 17 -5.66 17 -6 17 C-6.08086147 15.20906809 -6.13912702 13.41710372 -6.1875 11.625 C-6.22230469 10.62726562 -6.25710937 9.62953125 -6.29296875 8.6015625 C-6.14794922 7.31378906 -6.14794922 7.31378906 -6 6 C-5.01 5.34 -4.02 4.68 -3 4 C-2.67 3.01 -2.34 2.02 -2 1 C-1.34 0.67 -0.68 0.34 0 0 Z " fill="#3E4ECE" transform="translate(64,6)"/>
<path d="M0 0 C2.31 0 4.62 0 7 0 C7 0.33 7 0.66 7 1 C5.02 1.33 3.04 1.66 1 2 C0.34 4.31 -0.32 6.62 -1 9 C-1.66 9 -2.32 9 -3 9 C-3.33 11.31 -3.66 13.62 -4 16 C-6.99324263 14.9024777 -7.84610901 14.32317108 -9.25 11.375 C-9.4975 10.59125 -9.745 9.8075 -10 9 C-9.34 9 -8.68 9 -8 9 C-7.01 10.485 -7.01 10.485 -6 12 C-4.02 8.04 -2.04 4.08 0 0 Z " fill="#5F69A9" transform="translate(437,1)"/>
<path d="M0 0 C1.98 0 3.96 0 6 0 C6.33 1.32 6.66 2.64 7 4 C7.66 4 8.32 4 9 4 C9.33 4.99 9.66 5.98 10 7 C7.525 6.01 7.525 6.01 5 5 C5 3.68 5 2.36 5 1 C3.68 1 2.36 1 1 1 C1 10.24 1 19.48 1 29 C0.67 29 0.34 29 0 29 C0 19.43 0 9.86 0 0 Z " fill="#404ECF" transform="translate(156,3)"/>
<path d="M0 0 C1.60379341 -0.05416188 3.20811406 -0.09286638 4.8125 -0.125 C5.70582031 -0.14820313 6.59914063 -0.17140625 7.51953125 -0.1953125 C10 0 10 0 13 2 C13.1875 4.625 13.1875 4.625 13 7 C11.68 7 10.36 7 9 7 C8.67 6.01 8.34 5.02 8 4 C5.89415562 3.19436362 5.89415562 3.19436362 3.4375 2.8125 C2.61121094 2.65394531 1.78492187 2.49539062 0.93359375 2.33203125 C0.29550781 2.22246094 -0.34257813 2.11289063 -1 2 C-0.67 1.34 -0.34 0.68 0 0 Z " fill="#3F4FD7" transform="translate(70,4)"/>
<path d="M0 0 C3.40100748 4.53467664 3.33913116 5.7912782 3.1875 11.25 C3.16042969 12.51328125 3.13335937 13.7765625 3.10546875 15.078125 C3.07066406 16.04234375 3.03585938 17.0065625 3 18 C2.01 18 1.02 18 0 18 C0 12.06 0 6.12 0 0 Z " fill="#3C4DDC" transform="translate(237,13)"/>
<path d="M0 0 C2.5 1.25 2.5 1.25 5 3 C5 4.32 5 5.64 5 7 C5.66 7.33 6.32 7.66 7 8 C7 8.99 7 9.98 7 11 C7.66 11 8.32 11 9 11 C8.67 15.62 8.34 20.24 8 25 C7.67 25 7.34 25 7 25 C6.99742187 24.26136719 6.99484375 23.52273437 6.9921875 22.76171875 C6.71116805 15.38964175 5.14507193 10.45905796 1.27734375 4.1796875 C0 2 0 2 0 0 Z " fill="#7F89D6" transform="translate(420,8)"/>
<path d="M0 0 C0.66 0.33 1.32 0.66 2 1 C2 7.27 2 13.54 2 20 C1.67 20 1.34 20 1 20 C0.67 15.71 0.34 11.42 0 7 C-0.66 8.65 -1.32 10.3 -2 12 C-2.33 12 -2.66 12 -3 12 C-3.33 9.69 -3.66 7.38 -4 5 C-3.01 5 -2.02 5 -1 5 C-0.67 3.35 -0.34 1.7 0 0 Z " fill="#959FE2" transform="translate(180,13)"/>
<path d="M0 0 C1.0209375 0.7425 1.0209375 0.7425 2.0625 1.5 C5.67208369 3.34319167 7.99449813 3.44505576 12 3 C12.474375 2.505 12.94875 2.01 13.4375 1.5 C15.46352076 -0.44497993 16.43218429 -0.20195096 19.1875 -0.1875 C21.0746875 -0.0946875 21.0746875 -0.0946875 23 0 C23 0.33 23 0.66 23 1 C22.05125 1.103125 21.1025 1.20625 20.125 1.3125 C16.70892499 1.68539295 16.70892499 1.68539295 15 5 C12.390379 5.38411275 9.9941926 5.60293197 7.375 5.6875 C6.31539063 5.73874023 6.31539063 5.73874023 5.234375 5.79101562 C3.49014312 5.87351308 1.74509605 5.93843335 0 6 C0.33 5.01 0.66 4.02 1 3 C0.67 2.01 0.34 1.02 0 0 Z " fill="#515787" transform="translate(64,22)"/>
<path d="M0 0 C0 3 0 3 0 3 Z M-1 2 C-0.80344013 6.91399678 -1.4600938 10.3802814 -3 15 C-3.45496155 18.32471903 -3.74873647 21.65422777 -4 25 C-4.33 25 -4.66 25 -5 25 C-5 20.71 -5 16.42 -5 12 C-4.34 12 -3.68 12 -3 12 C-3.33 9.03 -3.66 6.06 -4 3 C-2 2 -2 2 -1 2 Z " fill="#4E5CD1" transform="translate(438,7)"/>
<path d="M0 0 C3 1 3 1 4.75 4.375 C6 8 6 8 5 11 C4.34 9.68 3.68 8.36 3 7 C2.34 7 1.68 7 1 7 C0.34 8.32 -0.32 9.64 -1 11 C-1.33 8.69 -1.66 6.38 -2 4 C-1.34 4 -0.68 4 0 4 C0 2.68 0 1.36 0 0 Z " fill="#6571C5" transform="translate(164,10)"/>
<path d="M0 0 C1.8125 0.1875 1.8125 0.1875 4 1 C6.14197494 3.90696599 7 5.35521088 7 9 C4.36 9 1.72 9 -1 9 C-1 8.01 -1 7.02 -1 6 C0.98 6.495 0.98 6.495 3 7 C2.42547254 3.06924356 2.42547254 3.06924356 0 0 Z " fill="#7D84B8" transform="translate(80,4)"/>
<path d="M0 0 C0.7734375 -0.00257812 1.546875 -0.00515625 2.34375 -0.0078125 C4.5 0.125 4.5 0.125 7.5 1.125 C7.5 1.785 7.5 2.445 7.5 3.125 C5.37527424 3.17886629 3.25016348 3.21773071 1.125 3.25 C-0.65003906 3.28480469 -0.65003906 3.28480469 -2.4609375 3.3203125 C-5.5 3.125 -5.5 3.125 -7.5 1.125 C-4.68772378 0.18757459 -2.91253156 -0.00970844 0 0 Z " fill="#4E5895" transform="translate(120.5,0.875)"/>
<path d="M0 0 C0.99 0.99 1.98 1.98 3 3 C3.66 2.01 4.32 1.02 5 0 C6.32 0 7.64 0 9 0 C9 1.98 9 3.96 9 6 C7.35 5.67 5.7 5.34 4 5 C3.67 5.66 3.34 6.32 3 7 C0 2.25 0 2.25 0 0 Z " fill="#5C68C3" transform="translate(222,18)"/>
<path d="M0 0 C0.66 0.33 1.32 0.66 2 1 C1.8125 2.875 1.8125 2.875 1 5 C-1.5625 6.25 -1.5625 6.25 -4 7 C-4.33 5.68 -4.66 4.36 -5 3 C-6.98 3 -8.96 3 -11 3 C-11 2.67 -11 2.34 -11 2 C-10.28972656 1.93941406 -9.57945313 1.87882812 -8.84765625 1.81640625 C-7.46900391 1.69072266 -7.46900391 1.69072266 -6.0625 1.5625 C-5.14597656 1.48128906 -4.22945313 1.40007813 -3.28515625 1.31640625 C-1.03840268 1.23955024 -1.03840268 1.23955024 0 0 Z " fill="#505FD9" transform="translate(80,25)"/>
<path d="M0 0 C4.42068526 4.0306248 8.31776927 8.61537138 11 14 C10.67 14.99 10.34 15.98 10 17 C4.52211615 12.28293335 2.25684336 6.77053009 0 0 Z " fill="#6871AF" transform="translate(314,4)"/>
<path d="M0 0 C0.66 0 1.32 0 2 0 C3.35439668 2.70879335 3.06501451 5.00933268 3 8 C1.02 8.99 1.02 8.99 -1 10 C-1.125 2.25 -1.125 2.25 0 0 Z " fill="#3A4FD8" transform="translate(132,10)"/>
<path d="M0 0 C1.10254127 3.30762382 2.0422425 6.64784873 3 10 C3.33 10.99 3.66 11.98 4 13 C2.68 13 1.36 13 0 13 C-1.33106125 9.00681626 -1.13647721 5.16255487 -1 1 C-0.67 0.67 -0.34 0.34 0 0 Z " fill="#3C4DDE" transform="translate(60,13)"/>
<path d="M0 0 C0.33 0.99 0.66 1.98 1 3 C0.01 4.485 0.01 4.485 -1 6 C-1.27939399 8.3789529 -1.27939399 8.3789529 -1.1875 10.9375 C-1.18105469 11.79214844 -1.17460938 12.64679687 -1.16796875 13.52734375 C-1.01275689 15.81220668 -0.63624477 17.80622805 0 20 C-0.99 19.67 -1.98 19.34 -3 19 C-3.0814222 16.77144426 -3.13938079 14.54202345 -3.1875 12.3125 C-3.22230469 11.07113281 -3.25710937 9.82976563 -3.29296875 8.55078125 C-2.9846829 4.81435679 -2.18088273 2.99370517 0 0 Z " fill="#4D5BC8" transform="translate(109,7)"/>
<path d="M0 0 C0.33 0 0.66 0 1 0 C1.09978121 3.49234244 0.77842938 6.59437148 0 10 C-1.65 10 -3.3 10 -5 10 C-4.34 9.67 -3.68 9.34 -3 9 C-3.2475 8.443125 -3.495 7.88625 -3.75 7.3125 C-4 5 -4 5 -2.125 2.25 C-1.42375 1.5075 -0.7225 0.765 0 0 Z " fill="#3C4CCB" transform="translate(174,23)"/>
<path d="M0 0 C0.99 0.33 1.98 0.66 3 1 C3.3721042 2.32303717 3.70630173 3.65737935 4 5 C4.66 5.33 5.32 5.66 6 6 C5.01 6.495 5.01 6.495 4 7 C1.375 6.0625 1.375 6.0625 -1 5 C-0.67 3.35 -0.34 1.7 0 0 Z " fill="#404FCA" transform="translate(165,16)"/>
<path d="M0 0 C0 0.66 0 1.32 0 2 C-1.175625 2.5259375 -1.175625 2.5259375 -2.375 3.0625 C-5.9073692 5.66972489 -6.01056529 7.9506829 -6.73828125 12.13671875 C-6.82464844 12.75160156 -6.91101563 13.36648437 -7 14 C-7.33 14 -7.66 14 -8 14 C-8.28329101 10.29203542 -8.44731303 6.69851501 -8 3 C-5.17008851 0.3230567 -3.86319085 0 0 0 Z " fill="#8590D3" transform="translate(119,7)"/>
<path d="M0 0 C2.31 0 4.62 0 7 0 C7 1.65 7 3.3 7 5 C4.36 5 1.72 5 -1 5 C-1 4.34 -1 3.68 -1 3 C0.98 3 2.96 3 5 3 C5 2.34 5 1.68 5 1 C3.35 1 1.7 1 0 1 C0 0.67 0 0.34 0 0 Z " fill="#5660B7" transform="translate(394,3)"/>
<path d="M0 0 C2.31 0 4.62 0 7 0 C6.34 1.65 5.68 3.3 5 5 C4.01 5 3.02 5 2 5 C1.34 3.35 0.68 1.7 0 0 Z " fill="#6670D0" transform="translate(80,23)"/>
<path d="M0 0 C2.64 0 5.28 0 8 0 C8 0.66 8 1.32 8 2 C6.35 2 4.7 2 3 2 C3 3.65 3 5.3 3 7 C0 3.375 0 3.375 0 0 Z " fill="#777EA6" transform="translate(417,1)"/>
<path d="M0 0 C2.31 0.33 4.62 0.66 7 1 C7 1.66 7 2.32 7 3 C5.37373596 4.38232443 3.7074998 5.71937515 2 7 C1.34 4.69 0.68 2.38 0 0 Z " fill="#6974D4" transform="translate(164,21)"/>
<path d="M0 0 C1.31625194 2.63250388 0.74813658 3.80179056 0.0625 6.625 C-0.13214844 7.44226563 -0.32679688 8.25953125 -0.52734375 9.1015625 C-0.68332031 9.72804688 -0.83929688 10.35453125 -1 11 C-1.99 11 -2.98 11 -4 11 C-3.39301257 6.87248551 -1.96189209 3.6678852 0 0 Z " fill="#757DC6" transform="translate(232,7)"/>
<path d="M0 0 C0.66 0 1.32 0 2 0 C2 1.32 2 2.64 2 4 C2.66 4 3.32 4 4 4 C4.33 5.98 4.66 7.96 5 10 C1.32769295 6.92000054 0.43197635 4.7517398 0 0 Z " fill="#707ACD" transform="translate(315,13)"/>
<path d="M0 0 C1.98 0.99 3.96 1.98 6 3 C6 4.98 6 6.96 6 9 C2.91910327 6.22719294 1.31224548 3.93673644 0 0 Z " fill="#7B83CE" transform="translate(320,23)"/>
<path d="M0 0 C1.98 0 3.96 0 6 0 C6.33 1.32 6.66 2.64 7 4 C7.66 4 8.32 4 9 4 C9.33 4.99 9.66 5.98 10 7 C7.525 6.01 7.525 6.01 5 5 C5 3.68 5 2.36 5 1 C3.35 1.33 1.7 1.66 0 2 C0 1.34 0 0.68 0 0 Z " fill="#4952BC" transform="translate(156,3)"/>
<path d="M0 0 C1.98 0 3.96 0 6 0 C5.67 1.32 5.34 2.64 5 4 C2.03 3.505 2.03 3.505 -1 3 C-0.67 2.01 -0.34 1.02 0 0 Z " fill="#3C4DD8" transform="translate(272,29)"/>
<path d="M0 0 C3.31038651 1.65519326 3.78867011 4.65442221 5 8 C4.67 8.99 4.34 9.98 4 11 C3.71125 10.360625 3.4225 9.72125 3.125 9.0625 C2.17176549 6.84793921 2.17176549 6.84793921 0 6 C0 4.02 0 2.04 0 0 Z " fill="#6D75BB" transform="translate(217,6)"/>
<path d="M0 0 C1.98 0.495 1.98 0.495 4 1 C3.125 4.875 3.125 4.875 2 6 C1.01 6.33 0.02 6.66 -1 7 C-0.67 4.69 -0.34 2.38 0 0 Z " fill="#3B4DDB" transform="translate(235,4)"/>
<path d="M0 0 C3.00617269 3.00617269 2.59585316 5.82381598 3 10 C0.51280729 7.08025204 -0.58572305 4.83206182 -1 1 C-0.67 0.67 -0.34 0.34 0 0 Z " fill="#747BCE" transform="translate(220,23)"/>
<path d="M0 0 C0.66 0.33 1.32 0.66 2 1 C1.25 3.4375 1.25 3.4375 0 6 C-2.125 6.8125 -2.125 6.8125 -4 7 C-2.68 4.69 -1.36 2.38 0 0 Z " fill="#5561A9" transform="translate(61,5)"/>
<path d="M0 0 C1.98 0 3.96 0 6 0 C5.25 4.75 5.25 4.75 3 7 C3 5.02 3 3.04 3 1 C2.01 0.67 1.02 0.34 0 0 Z " fill="#8D92D2" transform="translate(438,2)"/>
<path d="M0 0 C1.65 0 3.3 0 5 0 C5 1.65 5 3.3 5 5 C4.67 4.34 4.34 3.68 4 3 C2.68 3.33 1.36 3.66 0 4 C0 2.68 0 1.36 0 0 Z " fill="#434DCC" transform="translate(263,3)"/>
<path d="M0 0 C1.125 1.5625 1.125 1.5625 2 4 C1.125 7.75 1.125 7.75 0 11 C-1.125 9.4375 -1.125 9.4375 -2 7 C-1.125 3.25 -1.125 3.25 0 0 Z " fill="#6A77CE" transform="translate(175,22)"/>
</svg>
