<?xml version="1.0" encoding="UTF-8"?>
<svg version="1.1" xmlns="http://www.w3.org/2000/svg" width="201" height="165">
<path d="M0 0 C-5.62629254 6.80836378 -11.86812444 12.90011903 -18.1875 19.06054688 C-26.94028078 27.47706861 -26.94028078 27.47706861 -30.25 38.8125 C-30.212985 42.83973245 -29.03354911 45.50229553 -27 49 C-26.67 49.99 -26.34 50.98 -26 52 C-23.57616923 53.16953416 -23.57616923 53.16953416 -21 54 C-20.34 54.33 -19.68 54.66 -19 55 C-12.41741492 55.83306575 -7.39982797 54.84619325 -2 51 C5.40257186 44.77372723 12.24139002 37.91221475 19 31 C22.85223529 32.58217627 25.49141922 35.18243036 28.39526367 38.07299805 C28.9209343 38.58873886 29.44660492 39.10447968 29.98820496 39.635849 C31.72039495 41.33889733 33.44476527 43.04958076 35.16796875 44.76171875 C36.37054662 45.95278714 37.57312744 47.14385257 38.77571106 48.33491516 C41.29373289 50.83194721 43.80708073 53.33358939 46.31811523 55.83764648 C49.5327397 59.04129502 52.76549262 62.22596791 56.00294018 65.40652752 C58.49317816 67.85947741 60.96985909 70.32578073 63.44304848 72.79590797 C64.62899999 73.97581535 65.81994145 75.15072957 67.01595116 76.32044029 C68.68947326 77.95975696 70.34292924 79.6170751 71.99291992 81.2800293 C72.48798035 81.75666016 72.98304077 82.23329102 73.49310303 82.72436523 C76.9484048 86.26519983 77.90258338 89.0821846 78 94 C76.0625 97 76.0625 97 73 99 C67.60684644 99.16086667 64.92270614 98.35514173 60.95825195 94.67358398 C59.53405029 93.21467766 58.12822644 91.73767359 56.73828125 90.24609375 C55.98459763 89.47064713 55.230914 88.6952005 54.45439148 87.89625549 C52.05633673 85.42612997 49.68274316 82.9343037 47.3125 80.4375 C44.929826 77.93901992 42.54226054 75.44621444 40.13847351 72.96803284 C38.64539096 71.42786682 37.16457723 69.87569164 35.69758606 68.31065369 C35.02305893 67.61315506 34.3485318 66.91565643 33.65356445 66.19702148 C33.06702591 65.57826645 32.48048737 64.95951141 31.87617493 64.32200623 C29.46739321 62.6247101 27.88240194 62.7464648 25 63 C25.51753605 66.92770593 26.35859483 68.84922769 29.20288086 71.59350586 C30.21414284 72.5849485 30.21414284 72.5849485 31.24583435 73.59642029 C31.97810745 74.29550003 32.71038055 74.99457977 33.46484375 75.71484375 C34.21335098 76.4482045 34.96185822 77.18156525 35.73304749 77.93714905 C38.9331893 81.07193719 42.15638155 84.18264026 45.37768555 87.2956543 C47.72740906 89.57299804 50.0650349 91.86227134 52.40234375 94.15234375 C53.13259262 94.84939926 53.86284149 95.54645477 54.61521912 96.26463318 C58.32608861 99.90311322 61.05292713 102.69030048 62 108 C61.13456339 111.17326755 60.32755853 112.67244147 58 115 C54.71795119 115.64468816 53.15051215 115.84266791 50 115 C40.72525457 108.30221369 32.84252765 98.84652014 24.9362793 90.61401367 C23.24358204 88.85492683 21.5355576 87.11202411 19.82421875 85.37109375 C19.31267746 84.83060898 18.80113617 84.29012421 18.27409363 83.73326111 C15.89642521 81.33802232 14.54841881 80.06428061 11.13598633 79.66430664 C10.43111084 79.77508545 9.72623535 79.88586426 9 80 C9.51880058 83.94348307 10.38582348 85.88035136 13.21875 88.65698242 C13.89615234 89.33085495 14.57355469 90.00472748 15.27148438 90.69902039 C16.37459961 91.76646233 16.37459961 91.76646233 17.5 92.85546875 C18.25087891 93.59831619 19.00175781 94.34116364 19.77539062 95.10652161 C22.17433236 97.47647052 24.58650932 99.83237698 27 102.1875 C29.4108442 104.5558761 31.81887502 106.92704737 34.22460938 109.3006134 C35.72236443 110.77662329 37.22358359 112.24912763 38.72851562 113.71781921 C39.40591797 114.38223526 40.08332031 115.04665131 40.78125 115.73120117 C41.38001953 116.31568527 41.97878906 116.90016937 42.59570312 117.50236511 C44.59427002 119.63376878 44.98462999 120.88472494 45.375 123.8125 C45 127 45 127 42.9375 129.9375 C40 132 40 132 36.875 132.16796875 C31.25120962 131.15089243 27.78599332 126.36557934 24.0625 122.375 C22.53503035 120.77627434 21.00510376 119.17989229 19.47265625 117.5859375 C18.7262085 116.80645752 17.97976074 116.02697754 17.21069336 115.22387695 C14.54378016 112.54105946 11.72596728 110.08969869 8.85083008 107.63476562 C5.44649186 104.62784718 2.37728185 101.27417141 -0.68554688 97.92382812 C-3.06081164 95.44842045 -4.389621 94.0741115 -7.86328125 93.65234375 C-8.56839844 93.76707031 -9.27351563 93.88179688 -10 94 C-9.48669375 98.11423752 -8.47044822 100.01541284 -5.50585938 102.88476562 C-4.76839478 103.60901733 -4.03093018 104.33326904 -3.27111816 105.07946777 C-2.47008667 105.84730591 -1.66905518 106.61514404 -0.84375 107.40625 C-0.02628296 108.20857056 0.79118408 109.01089111 1.63342285 109.83752441 C4.24625269 112.40147669 6.8714532 114.95216895 9.5 117.5 C12.95935205 120.85312446 16.40540017 124.21910783 19.84375 127.59375 C20.64478149 128.36158813 21.44581299 129.12942627 22.27111816 129.92053223 C23.00858276 130.64478394 23.74604736 131.36903564 24.50585938 132.11523438 C25.15792358 132.74635132 25.80998779 133.37746826 26.48181152 134.02770996 C28.30596533 136.39748185 28.75930164 138.03285901 29 141 C26.72289157 146.63855422 26.72289157 146.63855422 24 148 C19.63878065 148.4921424 17.61127201 148.40648429 13.91015625 145.9453125 C12.93593035 145.03114842 11.98687426 144.08954357 11.0625 143.125 C10.57523437 142.6297583 10.08796875 142.1345166 9.5859375 141.62426758 C6.61793114 138.35852529 5.331882 136.10564099 5.5 131.6875 C5.59410156 130.87410156 5.68820313 130.06070313 5.78515625 129.22265625 C6.12547339 125.70192071 5.06242427 123.79425224 3 121 C0.05624272 118.73948515 -2.83892071 117.13349777 -6.58203125 116.703125 C-9 116 -9 116 -10.36328125 113.78515625 C-10.67652344 112.88667969 -10.98976563 111.98820312 -11.3125 111.0625 C-11.63863281 110.16660156 -11.96476562 109.27070312 -12.30078125 108.34765625 C-13 106 -13 106 -13 104 C-16.44454183 102.58051808 -16.44454183 102.58051808 -20.0078125 101.515625 C-22.27957661 100.89529089 -24.02932652 100.30081737 -26 99 C-27.06757883 96.77444252 -27.62875713 94.61037571 -28.2421875 92.22265625 C-29.54930638 88.38889005 -31.60229284 87.15623724 -35 85 C-36.8253125 84.62875 -36.8253125 84.62875 -38.6875 84.25 C-42 83 -42 83 -42.8984375 81.05859375 C-43.34504892 79.46392826 -43.77580657 77.8647461 -44.19140625 76.26171875 C-45.52611286 72.52840894 -47.74642144 71.16905238 -51 69 C-55.56302678 67.47899107 -59.38829386 67.33119677 -63.87109375 69.19140625 C-67.31014991 71.17927517 -69.88375959 73.44398535 -72.75 76.1875 C-77.78969957 81 -77.78969957 81 -80 81 C-89.81155793 69.60672996 -94.54142686 56.12367321 -94.25390625 41.2109375 C-93.10531412 26.68566475 -88.8188965 14.74623673 -79 4 C-78.42765625 3.37222656 -77.8553125 2.74445312 -77.265625 2.09765625 C-73.04480381 -2.02044584 -68.21385374 -4.66360329 -63 -7.3125 C-62.33548828 -7.65039551 -61.67097656 -7.98829102 -60.98632812 -8.33642578 C-39.85640422 -18.59493112 -18.32830231 -12.8600382 0 0 Z " fill="#3B4DDB" transform="translate(95,16)"/>
<path d="M0 0 C12.31554197 9.36204095 20.84485929 22.26884042 23.71875 37.60546875 C25.77452255 55.10808781 21.16108209 70.45554277 10.3125 84.25 C8.05078125 87.015625 8.05078125 87.015625 6 89 C5.01 89 4.02 89 3 89 C1.61096733 87.37946188 0.28667172 85.70294787 -1 84 C-2.65230014 82.31908959 -4.32089957 80.65413944 -6 79 C-7.72429481 77.26180263 -9.44754145 75.52256505 -11.16992188 73.7824707 C-16.14024598 68.76327926 -21.1180736 63.75160207 -26.10031891 58.74424458 C-29.10684444 55.72201598 -32.11047834 52.69702153 -35.10791016 49.66577148 C-38.01836827 46.7227033 -40.93610843 43.78703871 -43.85902405 40.85634422 C-44.96841475 39.74142257 -46.07516739 38.62386934 -47.17918396 37.50362587 C-48.72255176 35.93845519 -50.27508183 34.38295214 -51.83007812 32.8293457 C-52.70990356 31.94285843 -53.589729 31.05637115 -54.49621582 30.14302063 C-56.95781906 28.0361032 -58.93662747 26.98248058 -62 26 C-62.77085938 26.7940625 -63.54171875 27.588125 -64.3359375 28.40625 C-65.34869317 29.43776041 -66.36172852 30.46899627 -67.375 31.5 C-67.88289063 32.02464844 -68.39078125 32.54929688 -68.9140625 33.08984375 C-70.23832604 34.43153181 -71.61605865 35.71995815 -73 37 C-73.66 37 -74.32 37 -75 37 C-75.23074219 37.56589844 -75.46148437 38.13179687 -75.69921875 38.71484375 C-77.33565171 41.58965842 -79.33920394 43.37101878 -81.8125 45.5625 C-82.66457031 46.32691406 -83.51664063 47.09132812 -84.39453125 47.87890625 C-87.82138105 50.66868053 -90.58457468 52.79358381 -95 53.4375 C-98.86403373 52.87399508 -100.3553644 51.8650219 -103 49 C-104.5 45.625 -104.5 45.625 -105 42 C-103.05542207 36.99689719 -99.98622707 33.58406277 -96.1953125 29.90234375 C-95.63431854 29.34559464 -95.07332458 28.78884552 -94.49533081 28.21522522 C-92.71218927 26.44876144 -90.91889935 24.69303105 -89.125 22.9375 C-87.92769176 21.75525938 -86.73107037 20.57232272 -85.53515625 19.38867188 C-83.32990764 17.20781295 -81.12072291 15.03111927 -78.90673828 12.85913086 C-77.00513918 10.99358354 -75.11904475 9.11592936 -73.23852539 7.22875977 C-67.33817662 1.35415142 -60.61007409 -2.69331141 -53 -6 C-52.27683594 -6.32226562 -51.55367187 -6.64453125 -50.80859375 -6.9765625 C-34.73287403 -12.95952601 -14.09475309 -9.10237761 0 0 Z " fill="#3B4DDB" transform="translate(176,12)"/>
<path d="M0 0 C3.67317251 1.3574768 4.97688419 2.64589155 6.875 6.0625 C7.17488813 10.560822 5.40187049 12.93233854 2.625 16.25 C-2.52277778 21.71166667 -2.52277778 21.71166667 -6.125 23.0625 C-9.90154862 22.99738709 -12.17416906 22.89064308 -15.0625 20.375 C-16.54982538 17.13788005 -16.80741405 15.61105304 -16.125 12.0625 C-12.38611775 6.49715228 -7.06958767 0.14139175 0 0 Z " fill="#3B4EDD" transform="translate(88.125,138.9375)"/>
<path d="M0 0 C2.5337607 2.20682384 2.93959544 3.48762724 3.33203125 6.81640625 C2.90623327 10.89905748 1.55222447 12.30314459 -1.25 15.25 C-2.03890625 16.10078125 -2.8278125 16.9515625 -3.640625 17.828125 C-5.76125219 19.78022553 -7.31343049 21.01954061 -10 22 C-13.07955322 21.81145593 -15.21649819 21.51332877 -17.8125 19.8125 C-19.6984306 16.93397435 -20.12982122 15.50517287 -20 12 C-15.53638034 4.23249268 -9.55437287 -2.88433898 0 0 Z " fill="#3B4CD4" transform="translate(75,124)"/>
<path d="M0 0 C2.32039251 1.60027069 2.89969741 2.72775011 3.875 5.375 C4.08287423 9.7403588 1.99332424 11.82363624 -0.73828125 15.05859375 C-3.97114732 18.58022067 -6.1030946 20.73092838 -10.75 22.125 C-15.73029772 21.93345009 -15.73029772 21.93345009 -18 20 C-19.5509654 16.82757076 -20.29465863 14.9992771 -19.28125 11.5625 C-17.88118814 8.76237629 -16.36071605 6.99337773 -14.125 4.8125 C-13.44695313 4.13832031 -12.76890625 3.46414062 -12.0703125 2.76953125 C-7.89926337 -0.79553527 -5.37459041 -1.48658884 0 0 Z " fill="#3B4DDB" transform="translate(42,91)"/>
<path d="M0 0 C2.9375 2.0625 2.9375 2.0625 5 5 C4.8540292 10.67959107 3.41067768 13.45219048 -0.5625 17.4375 C-6.13522958 22.67538746 -6.13522958 22.67538746 -10.375 22.875 C-14.31801389 21.92323803 -15.83850681 21.42236422 -18 18 C-18.6875 15.25 -18.6875 15.25 -18 12 C-13.7668961 5.87500609 -8.08110253 -1.51520672 0 0 Z " fill="#3A4CD6" transform="translate(57,107)"/>
<path d="M0 0 C0.99 0.33 1.98 0.66 3 1 C3 1.66 3 2.32 3 3 C3.68578125 3.20109375 4.3715625 3.4021875 5.078125 3.609375 C9.03658912 5.4933499 11.68016777 8.16637077 14.75 11.25 C15.33910156 11.81074219 15.92820312 12.37148437 16.53515625 12.94921875 C20.04019013 16.43813753 21.9122926 18.8252635 22 24 C21.67 24.99 21.34 25.98 21 27 C20.01 27 19.02 27 18 27 C18 27.66 18 28.32 18 29 C16.35 29 14.7 29 13 29 C12.34 27.68 11.68 26.36 11 25 C10.34 25 9.68 25 9 25 C9 24.01 9 23.02 9 22 C7.68 21.67 6.36 21.34 5 21 C3.4087311 16.126739 2.78807779 12.19209404 3 7 C2.01 7 1.02 7 0 7 C-1.04449911 3.86650268 -0.93423645 3.01031744 0 0 Z " fill="#3B4EDD" transform="translate(100,134)"/>
<path d="M0 0 C2.32039251 1.60027069 2.89969741 2.72775011 3.875 5.375 C4.08287423 9.7403588 1.99332424 11.82363624 -0.73828125 15.05859375 C-6.54306682 21.38186502 -6.54306682 21.38186502 -10.875 22.125 C-14 22 -14 22 -16 20 C-13.36 20 -10.72 20 -8 20 C-7.62875 18.7934375 -7.62875 18.7934375 -7.25 17.5625 C-6 15 -6 15 -3.875 14.1875 C-3.25625 14.125625 -2.6375 14.06375 -2 14 C-1.67 12.68 -1.34 11.36 -1 10 C-0.34 10.33 0.32 10.66 1 11 C1.41725678 7.62599422 1.41725678 7.62599422 1 4 C-1.3726974 1.99135641 -1.3726974 1.99135641 -4 1 C-4.66 2.32 -5.32 3.64 -6 5 C-6.33 4.34 -6.66 3.68 -7 3 C-11.455 6.465 -11.455 6.465 -16 10 C-16.66 9.67 -17.32 9.34 -18 9 C-16.75645114 7.70212134 -15.5048736 6.41193241 -14.25 5.125 C-13.55390625 4.40570313 -12.8578125 3.68640625 -12.140625 2.9453125 C-8.00727933 -0.81090309 -5.45526971 -1.50890439 0 0 Z " fill="#3C47C2" transform="translate(42,91)"/>
<path d="M0 0 C0.99 0 1.98 0 3 0 C3.66 1.32 4.32 2.64 5 4 C5.66 4 6.32 4 7 4 C7 4.66 7 5.32 7 6 C10.54518884 4.60240095 10.54518884 4.60240095 14 3 C13.67 5.64 13.34 8.28 13 11 C10.03 11 7.06 11 4 11 C4 10.01 4 9.02 4 8 C3.34 8 2.68 8 2 8 C2 7.01 2 6.02 2 5 C1.01 4.67 0.02 4.34 -1 4 C-0.67 2.68 -0.34 1.36 0 0 Z " fill="#3A4EE0" transform="translate(157,102)"/>
<path d="M0 0 C8.57142857 -0.28571429 8.57142857 -0.28571429 12 2 C12 3.32 12 4.64 12 6 C12.66 6.33 13.32 6.66 14 7 C14 7.66 14 8.32 14 9 C12.68 8.67 11.36 8.34 10 8 C10.59861742 10.35171131 11.26924352 12.6859378 12 15 C12.66 15.33 13.32 15.66 14 16 C12.35 15.67 10.7 15.34 9 15 C8.77957031 14.11248047 8.77957031 14.11248047 8.5546875 13.20703125 C6.85779958 7.22891461 5.05050601 4.59147094 0 1 C0 0.67 0 0.34 0 0 Z " fill="#3B4BCA" transform="translate(60,100)"/>
<path d="M0 0 C3.11978438 2.05014402 4.94425275 4.44650366 7.1875 7.4375 C7.1875 8.0975 7.1875 8.7575 7.1875 9.4375 C7.8475 9.7675 8.5075 10.0975 9.1875 10.4375 C8.1875 11.4375 8.1875 11.4375 5.625 11.5 C4.820625 11.479375 4.01625 11.45875 3.1875 11.4375 C3.1875 10.7775 3.1875 10.1175 3.1875 9.4375 C2.259375 9.2209375 2.259375 9.2209375 1.3125 9 C-0.8125 8.4375 -0.8125 8.4375 -2.8125 7.4375 C-2.791875 6.65375 -2.77125 5.87 -2.75 5.0625 C-2.62565937 2.45635039 -2.62565937 2.45635039 -3.8125 0.4375 C-1.8125 -0.5625 -1.8125 -0.5625 0 0 Z " fill="#3A4EDE" transform="translate(89.8125,121.5625)"/>
<path d="M0 0 C3.66771845 1.83385923 5.46834996 3.25062829 8.25 6.125 C8.95640625 6.84945312 9.6628125 7.57390625 10.390625 8.3203125 C11.18726563 9.15175781 11.18726563 9.15175781 12 10 C8.06368636 10 6.87394974 8.57142871 4 6 C3.67 5.34 3.34 4.68 3 4 C-1.53014522 5.05655401 -1.53014522 5.05655401 -4.5625 8.375 C-5.036875 9.24125 -5.51125 10.1075 -6 11 C-8.4375 13.125 -8.4375 13.125 -11 15 C-11.763125 15.5775 -12.52625 16.155 -13.3125 16.75 C-13.869375 17.1625 -14.42625 17.575 -15 18 C-15.66 17.67 -16.32 17.34 -17 17 C-11.39 11.39 -5.78 5.78 0 0 Z " fill="#3947B7" transform="translate(114,47)"/>
<path d="M0 0 C6.55377097 5.38640924 12.47246635 11.35885127 18.4375 17.375 C19.46525983 18.40778595 20.49325285 19.44033991 21.52148438 20.47265625 C24.01701598 22.97910287 26.50938082 25.4886708 29 28 C28.67 28.66 28.34 29.32 28 30 C23.21484375 25.21484375 18.4296875 20.4296875 13.64453125 15.64453125 C12.83282471 14.83411377 12.02111816 14.02369629 11.18481445 13.1887207 C9.90192838 11.90354094 8.62270379 10.61465361 7.35229492 9.31713867 C5.04490829 6.96199242 3.08255337 5.25585507 0 4 C0 2.68 0 1.36 0 0 Z " fill="#3B49B8" transform="translate(126,90)"/>
<path d="M0 0 C1.04449911 3.13349732 0.93423645 3.98968256 0 7 C0.763125 6.95875 1.52625 6.9175 2.3125 6.875 C5 7 5 7 8 9 C8 9.66 8 10.32 8 11 C9.32 10.67 10.64 10.34 12 10 C10.9375 11.5625 10.9375 11.5625 9 13 C5.27019856 12.9333964 2.92343938 12.80428591 0.0625 10.3125 C-1.28907329 7.37084049 -1.27858381 5.20371381 -1 2 C-0.67 1.34 -0.34 0.68 0 0 Z " fill="#3E4CC6" transform="translate(73,149)"/>
<path d="M0 0 C3.16115776 1.36983503 3.9927092 1.9890638 6 5 C6.1299737 10.58886926 3.22786702 13.5184113 -0.30859375 17.4609375 C-2 19 -2 19 -4 19 C-3.8125 17.125 -3.8125 17.125 -3 15 C-0.4375 13.75 -0.4375 13.75 2 13 C2 12.236875 2 11.47375 2 10.6875 C2 8.79166667 2 6.89583333 2 5 C1.37400383 3.31763529 0.71247732 1.6476038 0 0 Z " fill="#3D49BC" transform="translate(89,140)"/>
<path d="M0 0 C0.66 0.33 1.32 0.66 2 1 C1.50628906 1.48210937 1.01257812 1.96421875 0.50390625 2.4609375 C-0.45708984 3.40839844 -0.45708984 3.40839844 -1.4375 4.375 C-2.07558594 5.00148438 -2.71367188 5.62796875 -3.37109375 6.2734375 C-5.07882176 7.91723061 -5.07882176 7.91723061 -6 10 C-5.01 10.33 -4.02 10.66 -3 11 C-3.99 12.485 -3.99 12.485 -5 14 C-5.99 14 -6.98 14 -8 14 C-8.33 15.32 -8.66 16.64 -9 18 C-10 17 -10 17 -10.5 14.4375 C-9.75046366 9.28443765 -6.58172043 6.5970597 -3 3 C-2.14341797 2.13955078 -2.14341797 2.13955078 -1.26953125 1.26171875 C-0.85058594 0.84535156 -0.43164062 0.42898437 0 0 Z " fill="#3B47BE" transform="translate(49,108)"/>
<path d="M0 0 C2.64 0 5.28 0 8 0 C7.67 1.32 7.34 2.64 7 4 C5.68 4 4.36 4 3 4 C0.38748857 6.20237049 0.38748857 6.20237049 -2.125 9 C-3.71578482 10.69935471 -5.33384123 12.37447925 -7 14 C-7.66 14 -8.32 14 -9 14 C-9 13.34 -9 12.68 -9 12 C-8.34 12 -7.68 12 -7 12 C-7.33 11.01 -7.66 10.02 -8 9 C-7.236875 8.814375 -6.47375 8.62875 -5.6875 8.4375 C-1.81384272 6.36554378 -1.43454737 4.07713462 0 0 Z " fill="#3B47C9" transform="translate(110,35)"/>
<path d="M0 0 C0.556875 0.226875 1.11375 0.45375 1.6875 0.6875 C1.3575 1.3475 1.0275 2.0075 0.6875 2.6875 C0.0275 2.6875 -0.6325 2.6875 -1.3125 2.6875 C-1.3125 3.3475 -1.3125 4.0075 -1.3125 4.6875 C-5.04813279 7.40432385 -8.86869192 8.55476461 -13.3125 9.6875 C-5.04545455 -0.68181818 -5.04545455 -0.68181818 0 0 Z " fill="#3C4AC5" transform="translate(87.3125,139.3125)"/>
<path d="M0 0 C1.875 0.3125 1.875 0.3125 4 1 C4.66 1.99 5.32 2.98 6 4 C8.58380177 4.25030977 8.58380177 4.25030977 11 4 C11 4.66 11 5.32 11 6 C11.66 6.66 12.32 7.32 13 8 C13.35412344 9.32796291 13.68521554 10.66216607 14 12 C14.64891038 13.34206465 15.3134765 14.67678131 16 16 C10.35573231 11.31645873 4.9941954 6.3792354 0 1 C0 0.67 0 0.34 0 0 Z " fill="#3C4ABD" transform="translate(122,108)"/>
<path d="M0 0 C0.66 0.33 1.32 0.66 2 1 C2.625 3.0625 2.625 3.0625 3 5 C2.04287109 5.19916016 2.04287109 5.19916016 1.06640625 5.40234375 C-0.17302734 5.66724609 -0.17302734 5.66724609 -1.4375 5.9375 C-2.67306641 6.19853516 -2.67306641 6.19853516 -3.93359375 6.46484375 C-5.97661204 6.80752994 -5.97661204 6.80752994 -7 8 C-9.35313555 8.07271741 -11.70833668 8.08370868 -14.0625 8.0625 C-15.35285156 8.05347656 -16.64320312 8.04445313 -17.97265625 8.03515625 C-18.97167969 8.02355469 -19.97070312 8.01195313 -21 8 C-21 7.34 -21 6.68 -21 6 C-19.948125 6.06960937 -19.948125 6.06960937 -18.875 6.140625 C-12.26110968 6.39224039 -7.51854367 5.7896766 -2 2 C-1.34 1.34 -0.68 0.68 0 0 Z " fill="#3D4AB9" transform="translate(95,65)"/>
<path d="M0 0 C2.64 1.65 5.28 3.3 8 5 C2.375 11.75 2.375 11.75 -1 14 C-0.21302675 10.58978257 0.87119943 7.31114834 2 4 C1.34 3.67 0.68 3.34 0 3 C0 2.01 0 1.02 0 0 Z " fill="#3B4BC9" transform="translate(87,11)"/>
<path d="M0 0 C1.8253125 0.0309375 1.8253125 0.0309375 3.6875 0.0625 C3.6875 0.7225 3.6875 1.3825 3.6875 2.0625 C2.63949219 2.18367187 1.59148438 2.30484375 0.51171875 2.4296875 C-0.86723886 2.59853945 -2.24614239 2.76783341 -3.625 2.9375 C-4.31529297 3.01613281 -5.00558594 3.09476562 -5.71679688 3.17578125 C-9.26889471 3.62193847 -11.2822029 4.04230193 -14.3125 6.0625 C-15.6325 6.0625 -16.9525 6.0625 -18.3125 6.0625 C-18.6425 6.7225 -18.9725 7.3825 -19.3125 8.0625 C-19.9725 7.4025 -20.6325 6.7425 -21.3125 6.0625 C-19.41917466 5.24417278 -17.52272267 4.43307732 -15.625 3.625 C-14.56925781 3.17253906 -13.51351562 2.72007812 -12.42578125 2.25390625 C-8.21782889 0.64358571 -4.49308613 -0.076154 0 0 Z " fill="#434DC3" transform="translate(52.3125,2.9375)"/>
<path d="M0 0 C3.40320742 1.01176437 4.75725331 1.64843582 6.8125 4.625 C7.204375 5.40875 7.59625 6.1925 8 7 C7.01 7.495 7.01 7.495 6 8 C6 7.34 6 6.68 6 6 C3.84188612 6.94729537 3.84188612 6.94729537 2 9 C-0.01920337 7.69593116 -2.01924973 6.36176581 -4 5 C-4 4.67 -4 4.34 -4 4 C-2.35 3.67 -0.7 3.34 1 3 C0.67 2.01 0.34 1.02 0 0 Z " fill="#3948CB" transform="translate(97,129)"/>
<path d="M0 0 C0.66 0.33 1.32 0.66 2 1 C1.175 1.763125 0.35 2.52625 -0.5 3.3125 C-3.34055197 5.75434142 -3.34055197 5.75434142 -3 9 C-6.465 10.485 -6.465 10.485 -10 12 C-10 9 -10 9 -8.57421875 7.24609375 C-7.95160156 6.64925781 -7.32898438 6.05242188 -6.6875 5.4375 C-6.07261719 4.83808594 -5.45773438 4.23867188 -4.82421875 3.62109375 C-3 2 -3 2 0 0 Z " fill="#3C4AC7" transform="translate(24,13)"/>
<path d="M0 0 C3.5 0.9375 3.5 0.9375 5.4375 2.625 C6.77148038 5.52836906 6.71536552 7.77880576 6.5 10.9375 C6.17 9.9475 5.84 8.9575 5.5 7.9375 C4.84 7.6075 4.18 7.2775 3.5 6.9375 C2.375 4.875 2.375 4.875 1.5 2.9375 C-1.14 2.9375 -3.78 2.9375 -6.5 2.9375 C-4.48884774 -0.02007686 -3.67399752 -0.0656071 0 0 Z " fill="#3B47C0" transform="translate(71.5,123.0625)"/>
<path d="M0 0 C1.75 0.1875 1.75 0.1875 4 1 C4.61875 1.825 5.2375 2.65 5.875 3.5 C8.53253113 6.62650721 10.00107959 6.66675663 14 7 C15.33737094 7.31674575 16.67288808 7.64270064 18 8 C15 10 15 10 11.8125 10.125 C6.47016415 8.54857303 3.50683696 5.22642168 0 1 C0 0.67 0 0.34 0 0 Z " fill="#404BC4" transform="translate(120,138)"/>
<path d="M0 0 C0 3 0 3 -1.5 5.6875 C-3.95181762 11.10193058 -3.43663624 16.25345503 -2 22 C-3.32 21.34 -4.64 20.68 -6 20 C-5.67 19.67 -5.34 19.34 -5 19 C-4.92728259 16.64686445 -4.91629132 14.29166332 -4.9375 11.9375 C-4.94652344 10.64714844 -4.95554688 9.35679688 -4.96484375 8.02734375 C-4.97644531 7.02832031 -4.98804688 6.02929688 -5 5 C-4.34 5 -3.68 5 -3 5 C-2.5359375 4.0409375 -2.5359375 4.0409375 -2.0625 3.0625 C-1 1 -1 1 0 0 Z " fill="#3948B9" transform="translate(68,42)"/>
<path d="M0 0 C0.66 0 1.32 0 2 0 C2.103125 0.61875 2.20625 1.2375 2.3125 1.875 C2.87525373 4.36526484 2.87525373 4.36526484 6 6 C8.29714187 6.02639829 8.29714187 6.02639829 10.6875 5.625 C11.49574219 5.51414063 12.30398437 5.40328125 13.13671875 5.2890625 C13.75160156 5.19367188 14.36648437 5.09828125 15 5 C14.01 6.485 14.01 6.485 13 8 C8.89144597 8.62672858 6.45233471 8.94006656 2.91796875 6.65234375 C1.19331891 5.16654562 -0.43054001 3.64793299 -2 2 C-1.34 1.34 -0.68 0.68 0 0 Z " fill="#3A48BA" transform="translate(140,123)"/>
<path d="M0 0 C0 0.99 0 1.98 0 3 C-1.96891808 4.78992552 -3.88550051 6.40638941 -6 8 C-7.175625 8.8971875 -7.175625 8.8971875 -8.375 9.8125 C-8.91125 10.204375 -9.4475 10.59625 -10 11 C-10.66 10.67 -11.32 10.34 -12 10 C-8.27856704 6.08552441 -4.85967024 2.50346649 0 0 Z " fill="#3A4AC9" transform="translate(109,54)"/>
<path d="M0 0 C1 3 1 3 0.375 5.0625 C-1.41614324 7.58638365 -3.09943988 8.05731796 -6 9 C-6.99 9.495 -6.99 9.495 -8 10 C-6.34908222 5.70761377 -3.26245434 3.1206085 0 0 Z " fill="#3E4BC9" transform="translate(81,41)"/>
<path d="M0 0 C0 0.66 0 1.32 0 2 C-3.93281242 5.0900669 -7.02125936 6.52583422 -12 7 C-9.20232475 3.70861735 -4.40323273 0 0 0 Z " fill="#3E4CBE" transform="translate(122,7)"/>
<path d="M0 0 C0 0.66 0 1.32 0 2 C-0.66 2 -1.32 2 -2 2 C-2 2.99 -2 3.98 -2 5 C-5.16115776 3.63016497 -5.9927092 3.0109362 -8 0 C-4.71023192 -1.09658936 -3.28696233 -0.79953138 0 0 Z " fill="#3E4BCD" transform="translate(112,123)"/>
<path d="M0 0 C3.13263778 1.04421259 3.90385789 1.81189586 5.4375 4.8125 C6 8 6 8 4.625 10.875 C4.08875 11.57625 3.5525 12.2775 3 13 C1.46554906 9.93109813 2.45015711 7.29905734 3 4 C2.01 3.34 1.02 2.68 0 2 C0 1.34 0 0.68 0 0 Z " fill="#3645B0" transform="translate(40,91)"/>
<path d="M0 0 C1.32 0 2.64 0 4 0 C4 0.99 4 1.98 4 3 C6.97 3 9.94 3 13 3 C12.34 3.66 11.68 4.32 11 5 C3.74640199 4.76972705 3.74640199 4.76972705 1 1.9375 C0.67 1.298125 0.34 0.65875 0 0 Z " fill="#3F49B7" transform="translate(157,110)"/>
<path d="M0 0 C-0.66 0 -1.32 0 -2 0 C-1.34 1.65 -0.68 3.3 0 5 C-0.721875 4.34 -1.44375 3.68 -2.1875 3 C-5.21597933 0.8464147 -6.39703406 0.58823246 -10 1 C-10 0.34 -10 -0.32 -10 -1 C-5.92224809 -1.9267618 -3.57818963 -2.33958553 0 0 Z " fill="#3A47C0" transform="translate(130,78)"/>
<path d="M0 0 C0.99 0.33 1.98 0.66 3 1 C1.54744301 4.82946843 -0.42895561 6.12050295 -4 8 C-4 6.68 -4 5.36 -4 4 C-3.01 4 -2.02 4 -1 4 C-0.67 2.68 -0.34 1.36 0 0 Z " fill="#3B49C6" transform="translate(98,48)"/>
<path d="M0 0 C0.66 0 1.32 0 2 0 C2 0.66 2 1.32 2 2 C2.66 2 3.32 2 4 2 C4 2.66 4 3.32 4 4 C4.99 4 5.98 4 7 4 C7 3.34 7 2.68 7 2 C7.99 1.67 8.98 1.34 10 1 C8.63016497 4.16115776 8.0109362 4.9927092 5 7 C0 1.125 0 1.125 0 0 Z " fill="#3D48B6" transform="translate(175,95)"/>
<path d="M0 0 C0.99 0.99 1.98 1.98 3 3 C0.69 4.98 -1.62 6.96 -4 9 C-4 7.68 -4 6.36 -4 5 C-3.01 5 -2.02 5 -1 5 C-0.67 3.35 -0.34 1.7 0 0 Z " fill="#3C4BC7" transform="translate(83,23)"/>
<path d="M0 0 C-0.33 0.99 -0.66 1.98 -1 3 C-1.99 2.67 -2.98 2.34 -4 2 C-3.34 3.65 -2.68 5.3 -2 7 C-3.9375 6.1875 -3.9375 6.1875 -6 5 C-6.33 4.01 -6.66 3.02 -7 2 C-4.35261084 0.5393715 -3.10551666 0 0 0 Z " fill="#3949C5" transform="translate(80,57)"/>
<path d="M0 0 C0.66 0.33 1.32 0.66 2 1 C0.88121617 2.17262904 -0.24523051 3.33795138 -1.375 4.5 C-2.00148438 5.1496875 -2.62796875 5.799375 -3.2734375 6.46875 C-5 8 -5 8 -7 8 C-7 7.34 -7 6.68 -7 6 C-6.34 6 -5.68 6 -5 6 C-5.33 5.01 -5.66 4.02 -6 3 C-5.195625 2.690625 -4.39125 2.38125 -3.5625 2.0625 C-1.10919595 1.23664655 -1.10919595 1.23664655 0 0 Z " fill="#3748BA" transform="translate(108,41)"/>
<path d="M0 0 C0.66 1.32 1.32 2.64 2 4 C1.360625 4.268125 0.72125 4.53625 0.0625 4.8125 C-2.33131686 5.88667752 -2.33131686 5.88667752 -3 9 C-3.66 9 -4.32 9 -5 9 C-3.7508258 5.54074837 -2.32472205 2.85306797 0 0 Z " fill="#404AC3" transform="translate(12,25)"/>
<path d="M0 0 C0.66 0.33 1.32 0.66 2 1 C2.625 3.0625 2.625 3.0625 3 5 C1.02 5 -0.96 5 -3 5 C-1.125 1.125 -1.125 1.125 0 0 Z " fill="#3A49C7" transform="translate(95,65)"/>
<path d="M0 0 C0.33 0.99 0.66 1.98 1 3 C-1.97 5.475 -1.97 5.475 -5 8 C-5.66 7.67 -6.32 7.34 -7 7 C-4.69 4.69 -2.38 2.38 0 0 Z " fill="#3944B7" transform="translate(31,93)"/>
<path d="M0 0 C0.66 0 1.32 0 2 0 C2 0.66 2 1.32 2 2 C2.66 2.33 3.32 2.66 4 3 C4.625 5.0625 4.625 5.0625 5 7 C4.01 7.33 3.02 7.66 2 8 C1.34 5.36 0.68 2.72 0 0 Z " fill="#3B49C0" transform="translate(51,91)"/>
<path d="M0 0 C-1.28965176 1.37562854 -2.62689293 2.70766393 -4 4 C-4.66 4 -5.32 4 -6 4 C-6.66 2.68 -7.32 1.36 -8 0 C-2.25 -1.125 -2.25 -1.125 0 0 Z " fill="#3A4CB9" transform="translate(21,93)"/>
<path d="M0 0 C0.66 1.32 1.32 2.64 2 4 C1.34 4.66 0.68 5.32 0 6 C-0.71408334 7.98356483 -1.38617742 9.98315437 -2 12 C-3.12377697 8.69564916 -2.89554742 6.9493138 -1.5625 3.75 C-1.27503906 3.04359375 -0.98757812 2.3371875 -0.69140625 1.609375 C-0.46324219 1.07828125 -0.23507812 0.5471875 0 0 Z " fill="#404BBE" transform="translate(6,35)"/>
<path d="M0 0 C2.64 1.65 5.28 3.3 8 5 C7.01 5.99 6.02 6.98 5 8 C4.731875 7.360625 4.46375 6.72125 4.1875 6.0625 C3.11332248 3.66868314 3.11332248 3.66868314 0 3 C0 2.01 0 1.02 0 0 Z " fill="#3D49BA" transform="translate(87,11)"/>
<path d="M0 0 C0.66 0.99 1.32 1.98 2 3 C-0.475 4.485 -0.475 4.485 -3 6 C-3.99 4.68 -4.98 3.36 -6 2 C-4.68 2 -3.36 2 -2 2 C-1.34 1.34 -0.68 0.68 0 0 Z " fill="#3748C7" transform="translate(152,97)"/>
<path d="M0 0 C0.66 0 1.32 0 2 0 C2.185625 1.1446875 2.185625 1.1446875 2.375 2.3125 C2.88102792 5.20267136 2.88102792 5.20267136 5 8 C3.35 7.67 1.7 7.34 0 7 C0 4.69 0 2.38 0 0 Z " fill="#3F49BD" transform="translate(118,79)"/>
<path d="M0 0 C2.97 0.99 5.94 1.98 9 3 C4.70600835 4.07349791 3.80504787 3.79682816 0 2 C0 1.34 0 0.68 0 0 Z " fill="#3F4FC1" transform="translate(164,7)"/>
</svg>
