<?xml version="1.0" encoding="UTF-8"?>
<svg version="1.1" xmlns="http://www.w3.org/2000/svg" width="500" height="39">
<path d="M0 0 C2.64 0 5.28 0 8 0 C14.33485194 13.6332574 14.33485194 13.6332574 17 20 C20.39247043 13.46532335 23.37933326 6.88108028 26 0 C28.64 0 31.28 0 34 0 C34 10.23 34 20.46 34 31 C31.69 31 29.38 31 27 31 C26.505 24.565 26.505 24.565 26 18 C25.195625 19.959375 24.39125 21.91875 23.5625 23.9375 C21.125 29.875 21.125 29.875 20 31 C18.02 31 16.04 31 14 31 C12.02 26.38 10.04 21.76 8 17 C7.67 21.62 7.34 26.24 7 31 C4.69 31 2.38 31 0 31 C0 20.77 0 10.54 0 0 Z " fill="#010101" transform="translate(208,3)"/>
<path d="M0 0 C2.31 0 4.62 0 7 0 C10.33333333 6.66666667 13.66666667 13.33333333 17 20 C17.23710693 19.42967041 17.47421387 18.85934082 17.71850586 18.27172852 C18.78895634 15.70091618 19.86317581 13.1316958 20.9375 10.5625 C21.31068359 9.66466797 21.68386719 8.76683594 22.06835938 7.84179688 C22.42607422 6.98779297 22.78378906 6.13378906 23.15234375 5.25390625 C23.48226318 4.46314697 23.81218262 3.6723877 24.15209961 2.85766602 C25 1 25 1 26 0 C28.31 0 30.62 0 33 0 C33 10.23 33 20.46 33 31 C30.69 31 28.38 31 26 31 C25.67 27.04 25.34 23.08 25 19 C23.35 22.96 21.7 26.92 20 31 C17.69 31 15.38 31 13 31 C11.35 27.04 9.7 23.08 8 19 C7.67 22.96 7.34 26.92 7 31 C4.69 31 2.38 31 0 31 C0 20.77 0 10.54 0 0 Z " fill="#010101" transform="translate(155,3)"/>
<path d="M0 0 C7 0 7 0 8.69677734 1.45288086 C9.26066162 2.44880249 9.26066162 2.44880249 9.8359375 3.46484375 C10.26003906 4.18220703 10.68414062 4.89957031 11.12109375 5.63867188 C11.53488281 6.39728516 11.94867188 7.15589844 12.375 7.9375 C13.23677265 9.42590084 14.0987415 10.91418811 14.9609375 12.40234375 C15.33009277 13.06741943 15.69924805 13.73249512 16.07958984 14.41772461 C16.90278808 15.98801215 16.90278808 15.98801215 18 17 C18.33 11.39 18.66 5.78 19 0 C21.31 0 23.62 0 26 0 C26 10.23 26 20.46 26 31 C19 31 19 31 17.19555664 29.53125 C16.77137451 28.8609375 16.34719238 28.190625 15.91015625 27.5 C15.43642578 26.778125 14.96269531 26.05625 14.47460938 25.3125 C14.00861328 24.549375 13.54261719 23.78625 13.0625 23 C12.56943359 22.236875 12.07636719 21.47375 11.56835938 20.6875 C10.3569143 18.80564358 9.17545922 16.90454152 8 15 C7.67 20.28 7.34 25.56 7 31 C4.69 31 2.38 31 0 31 C0 20.77 0 10.54 0 0 Z " fill="#000000" transform="translate(307,3)"/>
<path d="M0 0 C3.51520834 2.3707219 5.79390381 5.02530762 7.6875 8.8125 C8.40906957 15.94539263 8.11709784 21.06599469 3.6875 26.8125 C-0.15280899 30.01275749 -4.39182725 30.80312729 -9.3125 30.8125 C-14.87629131 29.86948452 -17.70797796 28.13792645 -21.3125 23.8125 C-24.18854834 19.08972589 -23.92754163 14.17659727 -23.3125 8.8125 C-21.28885322 4.36047709 -18.69601139 1.75610884 -14.3046875 -0.49609375 C-9.36273443 -2.21124217 -4.84987779 -1.73863543 0 0 Z M-15.3125 8.8125 C-16.91704372 12.02158744 -16.79268091 15.33118838 -16.3125 18.8125 C-14.47712757 22.00740757 -13.31774004 23.42586921 -9.875 24.75 C-5.9043121 24.84684605 -3.44753105 23.83011405 -0.5 21.1875 C1.22328542 17.74092916 1.33842729 14.54053814 0.6875 10.8125 C-1.3562208 6.97030489 -2.58161288 6.03841056 -6.75 4.75 C-11.04581579 4.82536519 -12.36469671 5.77799661 -15.3125 8.8125 Z " fill="#010101" transform="translate(128.3125,4.1875)"/>
<path d="M0 0 C2.31 0 4.62 0 7 0 C7.02505615 0.69150146 7.0501123 1.38300293 7.07592773 2.09545898 C7.19152161 5.20967866 7.31441242 8.32356789 7.4375 11.4375 C7.47681641 12.52611328 7.51613281 13.61472656 7.55664062 14.73632812 C7.61948242 16.28803711 7.61948242 16.28803711 7.68359375 17.87109375 C7.72025146 18.82943115 7.75690918 19.78776855 7.79467773 20.77514648 C7.75834424 22.97138925 7.75834424 22.97138925 9 24 C11.33297433 24.04092937 13.66705225 24.04241723 16 24 C17.23060421 21.53879159 17.2057723 19.74223134 17.31640625 16.9921875 C17.35830078 16.00605469 17.40019531 15.01992188 17.44335938 14.00390625 C17.48267578 12.97136719 17.52199219 11.93882813 17.5625 10.875 C17.60568359 9.83472656 17.64886719 8.79445313 17.69335938 7.72265625 C17.7996288 5.14857472 17.90166583 2.57439492 18 0 C20.31 0 22.62 0 25 0 C25.08736736 3.72901814 25.14051482 7.45777165 25.1875 11.1875 C25.21263672 12.24259766 25.23777344 13.29769531 25.26367188 14.38476562 C25.27333984 15.40634766 25.28300781 16.42792969 25.29296875 17.48046875 C25.3086792 18.41785889 25.32438965 19.35524902 25.34057617 20.32104492 C24.78843404 24.66416725 22.43387907 28.29709519 19 31 C14.68509986 32.32122911 10.36895414 32.46422538 6.125 30.875 C2.67125786 28.80275472 1.72396614 27.57232253 0 24 C-0.34057617 21.22924805 -0.34057617 21.22924805 -0.29296875 18.26171875 C-0.28330078 17.19501953 -0.27363281 16.12832031 -0.26367188 15.02929688 C-0.23853516 13.92650391 -0.21339844 12.82371094 -0.1875 11.6875 C-0.17396484 10.56537109 -0.16042969 9.44324219 -0.14648438 8.28710938 C-0.1112138 5.52424771 -0.06192235 2.76237171 0 0 Z " fill="#010000" transform="translate(262,3)"/>
<path d="M0 0 C2.42277949 1.69703698 3.59553034 3.51008768 4.734375 6.21484375 C4.734375 6.87484375 4.734375 7.53484375 4.734375 8.21484375 C2.094375 8.21484375 -0.545625 8.21484375 -3.265625 8.21484375 C-3.595625 7.22484375 -3.925625 6.23484375 -4.265625 5.21484375 C-7.12707602 4.58435454 -9.37830111 4.1081035 -12.265625 4.21484375 C-15.31108851 6.1817056 -16.89948171 7.57529947 -17.70703125 11.19140625 C-17.90348803 14.5755328 -17.4978244 16.84332472 -15.703125 19.71484375 C-12.35528151 21.77505513 -10.12548253 21.70609834 -6.265625 21.21484375 C-5.79125 20.71984375 -5.316875 20.22484375 -4.828125 19.71484375 C-2.80210424 17.76986382 -1.83344071 18.01289279 0.921875 18.02734375 C2.8090625 18.12015625 2.8090625 18.12015625 4.734375 18.21484375 C3.86285728 22.04952172 3.09576705 23.89647457 0.109375 26.52734375 C-5.1532003 29.1586314 -9.1710081 29.56986356 -14.953125 28.58984375 C-19.2907963 26.78930095 -21.94057641 24.40304018 -24.375 20.3828125 C-26.32537527 15.63518848 -26.31035505 9.80334902 -24.390625 5.046875 C-18.64363571 -3.81936835 -8.80837125 -4.79680683 0 0 Z " fill="#010101" transform="translate(82.265625,5.78515625)"/>
<path d="M0 0 C2.64 0 5.28 0 8 0 C9.98 3.96 11.96 7.92 14 12 C15.98 8.04 17.96 4.08 20 0 C22.31 0 24.62 0 27 0 C26.43263371 4.66304172 24.32791136 8.148321 22 12.125 C18.46999271 18.38351162 16.75693283 23.69279309 17 31 C14.69 31 12.38 31 10 31 C10.03222656 30.33097656 10.06445312 29.66195312 10.09765625 28.97265625 C9.98580561 19.71390895 6.42183959 13.31533056 1.93359375 5.4921875 C0 2 0 2 0 0 Z " fill="#010101" transform="translate(417,3)"/>
<path d="M0 0 C7.59 0 15.18 0 23 0 C23 1.98 23 3.96 23 6 C20.36 6 17.72 6 15 6 C15 14.25 15 22.5 15 31 C12.69 31 10.38 31 8 31 C8 22.75 8 14.5 8 6 C5.36 6 2.72 6 0 6 C0 4.02 0 2.04 0 0 Z " fill="#000000" transform="translate(378,3)"/>
<path d="M0 0 C2.31 0 4.62 0 7 0 C7 10.23 7 20.46 7 31 C4.69 31 2.38 31 0 31 C0 20.77 0 10.54 0 0 Z " fill="#010000" transform="translate(353,3)"/>
</svg>
